<?xml version="1.0" encoding="utf-8"?>
<!-- Generator: Adobe Illustrator 23.0.1, SVG Export Plug-In . SVG Version: 6.00 Build 0)  -->
<svg version="1.1" id="Layer_4_1_" xmlns="http://www.w3.org/2000/svg" xmlns:xlink="http://www.w3.org/1999/xlink" x="0px" y="0px"
	 viewBox="0 0 1280 1024" style="enable-background:new 0 0 1280 1024;" xml:space="preserve">
<style type="text/css">
	.st0{fill:#D42E2D;}
	.st1{opacity:0.3;}
	.st2{fill:#55285B;}
	.st3{fill:#433643;}
	.st4{fill:#2DB9EC;}
	.st5{fill:#FFFFFF;}
	.st6{fill:none;stroke:#000000;stroke-miterlimit:10;}
	.st7{fill:#D42E2D;stroke:#000000;stroke-width:2.5;stroke-miterlimit:10;}
	.st8{fill:#D42E2D;stroke:#000000;stroke-width:3;stroke-miterlimit:10;}
	.st9{fill:#F5822B;}
	.st10{opacity:0.3;fill:#55285B;}
	.st11{opacity:0.7;}
	.st12{opacity:0.3;fill:#FFFFFF;}
	.st13{fill:#FFC430;}
	.st14{opacity:0.5;fill:#FFFFFF;}
	.st15{opacity:0.5;fill:#55285B;}
	.st16{fill:none;stroke:#000000;stroke-width:6;stroke-miterlimit:10;}
	.st17{fill:#A7A9AC;stroke:#000000;stroke-width:2;stroke-miterlimit:10;}
	.st18{fill:#666763;stroke:#000000;stroke-miterlimit:10;}
	.st19{opacity:0.33;fill:#A7A9AC;}
	.st20{fill:#A7A9AC;}
	.st21{fill:#666763;}
	.st22{fill:#A7A9AC;stroke:#000000;stroke-miterlimit:10;}
	.st23{fill:#434332;}
	.st24{fill:#434332;stroke:#000000;stroke-width:2;stroke-miterlimit:10;}
	.st25{fill:#666763;stroke:#000000;stroke-width:2;stroke-miterlimit:10;}
	.st26{fill:none;stroke:#000000;stroke-width:0.5;stroke-miterlimit:10;}
	.st27{fill:#F1BF66;}
	.st28{opacity:0.1;fill:#FFFFFF;}
	.st29{opacity:0.3;fill:#434332;}
</style>
<g>
	<path class="st0" d="M683.12,494.44c0,0,65.55-9.12,79.85-17.46c0,0-11.33-25.04-1.16-26.35c10.05-1.29,17.34,19.6,21,13.46
		c3.66-6.14,6.41-34.88,16.37-36.94c10.64-2.21-5.85,68.72-12.97,75.23c-7.12,6.5-46.21,40.26-76.28,43.81
		C709.92,546.2,656.12,533.59,683.12,494.44z"/>
	<g>
		<g class="st1">
			<path class="st2" d="M801.27,428.03c-2.39,20.88-11.14,53.1-15.83,57.39c-7.12,6.5-46.21,40.26-76.28,43.81
				c0,0-16.06-7.85-21.19-23.45c-5.77,26.87,21.97,40.42,21.97,40.42c30.08-3.55,69.16-37.31,76.28-43.81
				C792.74,496.41,807.17,436.17,801.27,428.03z"/>
		</g>
		<g>
			<path d="M655.58,498.53c9.04-1.41,18.06-2.92,27.08-4.43c9.02-1.52,18.02-3.11,27.01-4.79c8.99-1.68,17.95-3.48,26.86-5.45
				c4.46-0.99,8.9-2.04,13.29-3.22c2.2-0.59,4.38-1.23,6.53-1.93c2.13-0.71,4.29-1.48,6.15-2.54l-0.39,1.16
				c-2.12-5.17-3.96-10.42-5.04-15.98c-0.26-1.39-0.45-2.81-0.5-4.27c-0.03-1.46,0.02-2.98,0.62-4.54c0.31-0.77,0.8-1.57,1.57-2.15
				c0.75-0.59,1.69-0.88,2.55-0.95c1.7-0.13,3.27,0.35,4.63,1.03c2.73,1.39,4.78,3.45,6.73,5.47c1.93,2.03,3.7,4.19,5.57,6.06
				c0.47,0.46,0.94,0.9,1.42,1.26c0.47,0.36,0.98,0.64,1.28,0.69c0.15,0.03,0.21,0.02,0.26-0.01c0.06-0.03,0.16-0.1,0.28-0.25
				c0.12-0.14,0.25-0.37,0.39-0.64c0.13-0.26,0.26-0.55,0.38-0.84c0.94-2.4,1.59-5.11,2.27-7.76c1.34-5.34,2.6-10.76,4.49-16.07
				c0.96-2.65,2.06-5.29,3.68-7.77c0.83-1.23,1.79-2.43,3.09-3.41c0.65-0.49,1.38-0.91,2.19-1.19c0.2-0.07,0.41-0.14,0.62-0.19
				l0.32-0.08c0.14-0.02,0.27-0.05,0.41-0.06c0.56-0.06,1.25,0.04,1.82,0.36c1.16,0.67,1.57,1.65,1.87,2.43
				c0.28,0.81,0.42,1.57,0.52,2.32c0.19,1.5,0.2,2.94,0.16,4.36c-0.08,2.85-0.41,5.63-0.83,8.4c-0.84,5.52-1.99,10.95-3.27,16.35
				c-2.62,10.78-5.7,21.42-9.58,31.85c-1,2.6-2.07,5.17-3.31,7.7c-0.63,1.26-1.29,2.52-2.16,3.74c-0.22,0.31-0.46,0.61-0.75,0.92
				c-0.32,0.33-0.57,0.54-0.83,0.77l-1.55,1.38c-4.14,3.67-8.4,7.23-12.75,10.65c-8.71,6.84-17.83,13.19-27.58,18.46
				c-4.87,2.63-9.88,5.03-15.09,6.93c-5.18,1.95-10.59,3.32-16.08,3.91c5.47-0.79,10.77-2.41,15.86-4.47
				c5.11-2.04,10.01-4.57,14.77-7.32c9.49-5.56,18.43-12.02,26.97-18.95c4.26-3.47,8.42-7.08,12.47-10.8l1.52-1.4
				c0.25-0.24,0.53-0.48,0.68-0.65c0.18-0.2,0.36-0.45,0.54-0.7c0.7-1.04,1.31-2.26,1.88-3.47c1.13-2.45,2.1-5.01,3.04-7.58
				c3.73-10.3,6.72-20.92,9.22-31.61c1.23-5.35,2.32-10.73,3.09-16.13c0.37-2.7,0.68-5.4,0.79-8.07c0.05-1.33,0.04-2.66-0.11-3.9
				c-0.08-0.62-0.19-1.22-0.36-1.71c-0.16-0.5-0.43-0.84-0.5-0.85c-0.04-0.01-0.06-0.03-0.18-0.03l-0.1,0.01l-0.18,0.05
				c-0.13,0.03-0.25,0.07-0.37,0.11c-0.49,0.17-0.97,0.43-1.43,0.77c-0.92,0.68-1.73,1.64-2.44,2.69c-1.42,2.13-2.49,4.62-3.42,7.14
				c-1.84,5.09-3.12,10.43-4.5,15.78c-0.71,2.69-1.35,5.37-2.43,8.1c-0.15,0.34-0.29,0.69-0.48,1.04c-0.18,0.34-0.38,0.72-0.7,1.11
				c-0.31,0.38-0.74,0.77-1.32,1.01c-0.58,0.25-1.25,0.26-1.77,0.16c-1.06-0.23-1.74-0.73-2.37-1.19c-0.62-0.48-1.16-0.98-1.67-1.49
				c-2.02-2.05-3.74-4.18-5.6-6.15c-1.84-1.96-3.8-3.85-5.99-5.01c-1.08-0.57-2.25-0.9-3.32-0.84c-1.04,0.07-1.7,0.55-2.14,1.58
				c-0.42,1.01-0.54,2.31-0.52,3.6c0.02,1.3,0.17,2.63,0.39,3.95c0.91,5.3,2.64,10.57,4.61,15.63l0.3,0.78l-0.69,0.38
				c-2.14,1.18-4.33,1.91-6.54,2.63c-2.2,0.7-4.42,1.31-6.64,1.89c-4.45,1.15-8.92,2.15-13.4,3.09c-8.96,1.89-17.98,3.47-27,5.01
				c-9.02,1.52-18.06,2.95-27.1,4.31C673.71,496.08,664.65,497.33,655.58,498.53z"/>
		</g>
	</g>
	<g>
		<path class="st3" d="M832.77,499.31l-18.88-74.53c-0.68-2.7-3.42-4.33-6.12-3.64l-36.99,9.37c-2.7,0.68-4.33,3.42-3.64,6.12
			l18.88,74.53c0.68,2.7,3.42,4.33,6.12,3.64l36.99-9.37C831.82,504.75,833.45,502.01,832.77,499.31z"/>
		<path class="st4" d="M821.4,491.62l-29.05,7.36c-1.46,0.37-2.94-0.51-3.31-1.97l-14.57-57.49c-0.37-1.46,0.51-2.94,1.97-3.31
			l29.05-7.36c1.46-0.37,2.94,0.51,3.31,1.97l14.57,57.49C823.74,489.77,822.86,491.25,821.4,491.62z"/>
		<g class="st1">
			<path class="st5" d="M816.69,425.83c-0.92-3.65-4.11-6.12-7.68-6.31l-25.31,91.97c1.63,3.66,5.69,5.73,9.7,4.71l9.97-2.41
				l18.91-65.9L816.69,425.83z"/>
		</g>
		<circle class="st6" cx="808.9" cy="503.3" r="4.33"/>
		<path d="M835.62,497.81l-18.51-73.05c-1.16-4.6-5.84-7.38-10.43-6.22l-36.17,9.16c-4.6,1.17-7.38,5.84-6.22,10.43l18.51,73.05
			c1.16,4.6,5.84,7.38,10.43,6.22l36.17-9.16C834,507.08,836.78,502.41,835.62,497.81z M829.12,505.43l-36.99,9.37
			c-2.7,0.68-5.44-0.95-6.12-3.64l-18.88-74.53c-0.68-2.7,0.95-5.44,3.64-6.12l36.99-9.37c2.7-0.68,5.44,0.95,6.12,3.64l18.88,74.53
			C833.45,502.01,831.82,504.75,829.12,505.43z"/>
		<path d="M805.52,426.4l-30.27,7.67c-2.44,0.62-3.92,3.1-3.3,5.55l14.82,58.5c0.62,2.44,3.1,3.92,5.55,3.3l30.27-7.67
			c2.44-0.62,3.92-3.1,3.3-5.55l-14.82-58.5C810.45,427.26,807.97,425.78,805.52,426.4z M823.37,488.31
			c0.37,1.46-0.51,2.94-1.97,3.31l-29.05,7.36c-1.46,0.37-2.94-0.51-3.31-1.97l-14.57-57.49c-0.37-1.46,0.51-2.94,1.97-3.31
			l29.05-7.36c1.46-0.37,2.94,0.51,3.31,1.97L823.37,488.31z"/>
	</g>
</g>
<path class="st7" d="M807.45,463.54c-5.74-17.34,0.28-29.76,8.04-32.33c7.76-2.57,15.03,7.44,19.92,22.21
	c4.89,14.77,5.54,28.71-2.22,31.28S813.47,481.72,807.45,463.54z"/>
<g>
	<path class="st8" d="M620.6,494.74c0,0-43.96-134.41-88.07-171.6S428.22,613.88,427.6,640.56c0,0,24.93-93.48,42.79-98.24
		c18.06-4.81,23.75,53.8,23.75,53.8s8.78-65.55,27.47-70.25c17.39-4.37,21.68,47.64,21.68,47.64s6.21-52.69,24.76-55.4
		s24.53,42.83,24.53,42.83L620.6,494.74z"/>
</g>
<g>
	<path d="M441.69,675.75c-1.71-0.41-4.66-1.87-10.51-9.78c-1.07-1.45-1.48-3.31-1.12-5.09c0.36-1.78,1.46-3.31,3-4.21
		c2.56-1.48,5.83-3.51,7.79-4.73c-0.15-2.07-0.04-5.76,0.97-12.56c0.59-3.96,3.88-6.84,7.83-6.84c0.26,0,0.53,0.01,0.79,0.04
		c3.41,0.35,7.49,1.21,10.36,1.89c0.5-4.14,2.09-9.87,4.75-17.14c1.29-3.53,4.63-5.89,8.31-5.89c0.87,0,1.73,0.13,2.57,0.39
		c5.42,1.68,13.82,5.33,17.74,7.22c1.86-6.43,4.67-15.09,6.82-19.93c1.38-3.12,3.42-5.28,6.76-5.28c0.7,0,1.4,0.09,2.08,0.26
		c8.42,2.17,19.09,8.62,19.55,8.9l3.71,2.26l-90.03,70.81L441.69,675.75z"/>
	<path class="st9" d="M528.97,604.49c0,0-10.89-6.49-19.17-8.58c-2.68-0.68-5.46,0.68-6.59,3.2c-2.56,5.66-7.13,16.28-8.38,22.61
		c0,0-11.24-5.66-19.28-8.1c-3.06-0.93-6.31,0.69-7.43,3.69c-2.17,5.81-5.37,15.38-4.77,19.91c0,0-7.99-2.13-13.77-2.7
		c-2.7-0.27-5.14,1.59-5.55,4.27c-0.68,4.48-1.51,11.29-0.64,13.6c0,0-5.71,3.55-9.79,5.87c-1.74,0.99-2.22,3.29-1.01,4.89
		c2.49,3.3,6.46,8.07,9.03,8.67L528.97,604.49z"/>
</g>
<g>
	<path d="M536.74,603.93c-1.71,0-3.33-0.58-4.58-1.64c-4.52-3.83-9.1-9.44-12.16-13.47c-1.09-1.43-1.48-3.23-1.07-4.94
		c0.43-1.81,1.69-3.35,3.46-4.24c5.37-2.69,13.4-4.87,19.18-6.22c0.83-0.19,1.5-0.69,1.85-1.35c0.19-0.37,0.36-0.96,0.08-1.65
		c-4.12-9.9-3.65-19.59-3.41-22.32c0.09-0.97,0.39-1.87,0.91-2.69c4.3-6.79,19.33-13.04,27.91-16.16c1.1-0.4,1.79-1.33,1.71-2.32
		c-0.22-3-1.11-7.45-1.97-11.76c-1.29-6.49-2.41-12.09-1.91-14.93c0.29-1.61,1.22-3.04,2.63-4.02c6.15-4.28,17.44-9.87,27.67-12
		c0.21-0.04,0.46-0.1,0.51-0.65c0.09-1.01-0.63-2.46-1.81-2.93c-10.35-4.14-16.62-10.58-18.83-13.15c-0.99-1.15-1.52-2.59-1.47-4.03
		c0.21-6.96,5.14-15.51,9.24-21.46c0.4-0.58,0.48-1.25,0.23-1.88c-0.31-0.78-1.08-1.36-2.04-1.57c-13.07-2.78-20.51-7.1-23.79-9.42
		c-2.25-1.6-3.19-4.26-2.39-6.79c2.16-6.85,6.45-15.19,9.68-20.98c0.37-0.66,0.27-1.26,0.13-1.64c-0.25-0.67-0.86-1.23-1.65-1.51
		c-13.52-4.91-20.47-12.29-23.4-16.24c-1.37-1.85-1.56-4.26-0.5-6.28c4.03-7.66,10.62-16.48,14.19-21.05
		c0.49-0.63,0.5-1.25,0.41-1.66c-0.14-0.66-0.58-1.22-1.26-1.6c-11.59-6.44-17.13-14.12-19.41-18.12c-1.04-1.82-1.03-4.02,0.02-5.88
		c11.32-19.99,29.02-24.11,36.11-24.95c0.3-0.04,0.6-0.05,0.89-0.05c2.02,0,3.92,0.8,5.22,2.2l29.17,31.36
		c0.6,0.64,1.04,1.38,1.32,2.19l34.36,99.01c0.18,0.52,0.29,1.07,0.32,1.62l2.35,44.09c0.07,1.35-0.32,2.66-1.12,3.78l-38.67,54.17
		c-0.22,0.31-0.48,0.61-0.76,0.88l-62.37,60.3C540.44,603.21,538.62,603.93,536.74,603.93
		C536.74,603.93,536.74,603.93,536.74,603.93z"/>
	<path class="st9" d="M571.26,304.38c-6.66,0.79-23.69,4.69-34.6,23.95c-0.7,1.24-0.73,2.71-0.03,3.95
		c2.01,3.54,7.31,11.07,18.64,17.37c2.38,1.32,3.05,4.13,1.45,6.19c-3.77,4.83-10.1,13.34-14,20.76c-0.71,1.36-0.59,2.95,0.34,4.2
		c2.62,3.54,9.27,10.76,22.48,15.56c2.64,0.96,3.85,3.69,2.58,5.97c-2.83,5.09-7.35,13.7-9.52,20.61c-0.53,1.69,0.1,3.5,1.65,4.6
		c3.35,2.38,10.5,6.42,23.04,9.09c3.22,0.69,4.78,3.97,3.05,6.49c-3.69,5.35-8.7,13.79-8.89,20.41c-0.03,0.97,0.33,1.92,1,2.69
		c2.19,2.55,8.16,8.64,18.06,12.6c3.31,1.32,4.39,6.64,0.96,7.35c-10.08,2.1-21.23,7.71-26.93,11.68c-0.97,0.68-1.61,1.66-1.81,2.75
		c-0.77,4.34,3.36,18.92,3.9,26.2c0.14,1.87-1.07,3.61-3.02,4.32c-7.07,2.57-22.8,8.88-26.91,15.35c-0.35,0.56-0.56,1.17-0.61,1.81
		c-0.25,2.78-0.66,11.96,3.27,21.4c1,2.39-0.55,5.03-3.31,5.68c-5.37,1.26-13.46,3.41-18.74,6.06c-2.49,1.25-3.29,4.12-1.69,6.23
		c2.75,3.62,7.37,9.35,11.86,13.16c1.95,1.65,5.04,1.52,6.86-0.24l62.37-60.3c0.2-0.19,0.37-0.39,0.53-0.61l38.67-54.17
		c0.54-0.76,0.8-1.64,0.76-2.54l-2.35-44.09c-0.02-0.37-0.09-0.73-0.21-1.08l-34.36-99.01c-0.19-0.54-0.5-1.05-0.9-1.49
		l-29.17-31.36C574.59,304.75,572.92,304.18,571.26,304.38z"/>
</g>
<path d="M441.79,714.55c-15.14-32.47-16.1-59.01,21.45-83.55c37.84-24.73,83.46-31.87,83.46-31.87l32.02,86.94l-79.54,62.62
	C499.18,748.69,456.93,747.02,441.79,714.55z"/>
<path class="st0" d="M446.79,717.55c0,0-31.77-47.77,10.13-79.55c32.5-24.65,92.78-37.87,92.78-37.87l32.02,87.94L446.79,717.55z"/>
<g>
	<path class="st0" d="M651.78,576.59c0,0,25.17,0.7,60.34,44.67c27.97,34.97,31.09,43.34,64.86,44.76c0,0,26.17-41.58,47.95-41.05
		c21.64,0.52,10.62,33.67,4.47,43.27s-16.73,20.11-16,28.08s2.83,30.87-18.27,25.28c-15.28-4.05-21.45-16.96-41.39-18.8
		c-41.02-3.77-101.32-9.78-118.53-22.26C614.16,665.27,593.67,588.95,651.78,576.59z"/>
	<path class="st10" d="M827.73,634.36c-8.65,2.82-21.28,13.47-29.26,30.09c-3.22,6.7-3.33,20.48-12.64,21.55
		c-9.31,1.07-83.14-19.55-110.4-36.48c-13.09-8.13-37.96-30.32-56.86-47.83c-12.51,27.64,1.93,68.17,16.65,78.84
		c17.21,12.48,77.51,18.49,118.53,22.26c19.94,1.83,26.11,14.74,41.39,18.8c21.1,5.59,19-17.31,18.27-25.28
		c-0.73-7.97,9.85-18.48,16-28.08c4.01-6.26,10.07-22.51,7.83-33.22C834.26,633.89,830.9,633.32,827.73,634.36z"/>
	<g>
		<path d="M651.78,576.59c3.32,0.26,6.54,1.26,9.66,2.4c3.11,1.18,6.13,2.62,9.05,4.22c5.83,3.23,11.29,7.1,16.42,11.34
			c10.28,8.49,19.34,18.39,27.6,28.82c4.17,5.18,8.27,10.42,12.46,15.57c4.2,5.13,8.45,10.26,13.37,14.62
			c4.88,4.41,10.72,7.61,17.09,9.17c6.35,1.62,12.98,2.11,19.58,2.42l-0.76,0.4c3.82-5.91,7.98-11.52,12.46-16.92
			c4.5-5.37,9.32-10.51,14.76-15.01c2.72-2.24,5.61-4.32,8.74-6.02c3.13-1.69,6.53-3.05,10.18-3.47c1.82-0.22,3.66-0.15,5.48,0.16
			c1.81,0.33,3.63,0.98,5.19,2.08c1.57,1.09,2.83,2.6,3.68,4.27c0.85,1.67,1.37,3.47,1.64,5.26c0.55,3.61,0.31,7.21-0.24,10.72
			c-0.56,3.51-1.44,6.94-2.57,10.29c-1.13,3.35-2.47,6.62-4.15,9.77c-0.84,1.59-1.86,3.07-2.85,4.51c-1.01,1.44-2.05,2.85-3.1,4.25
			c-2.09,2.8-4.22,5.55-6.16,8.39c-1.92,2.84-3.75,5.8-4.63,8.97c-0.22,0.79-0.34,1.58-0.38,2.37c-0.03,0.4,0,0.77,0.03,1.18
			l0.11,1.31c0.15,1.75,0.26,3.51,0.28,5.28c0.05,3.53-0.17,7.13-1.19,10.63c-0.51,1.74-1.26,3.45-2.35,4.98
			c-1.09,1.53-2.59,2.81-4.3,3.61c-1.72,0.81-3.61,1.15-5.44,1.17c-1.84,0.03-3.64-0.22-5.39-0.62c-3.5-0.79-6.83-2.17-9.93-3.89
			c-3.11-1.72-5.98-3.75-8.85-5.71c-2.87-1.96-5.76-3.84-8.82-5.37c-3.06-1.55-6.3-2.67-9.64-3.41c-1.67-0.35-3.37-0.61-5.08-0.79
			l-5.2-0.52l-10.4-1.09c-13.86-1.55-27.71-3.16-41.53-5.06c-6.91-0.93-13.81-1.9-20.71-2.9c-6.9-1.02-13.8-2-20.66-3.23
			c6.88,1.1,13.8,1.94,20.72,2.83c6.92,0.87,13.83,1.7,20.76,2.5c13.85,1.58,27.7,3.16,41.56,4.52l10.4,0.98l5.2,0.47
			c1.76,0.17,3.52,0.42,5.26,0.77c3.47,0.73,6.87,1.88,10.05,3.46c3.19,1.55,6.17,3.48,9.05,5.44c2.89,1.96,5.73,3.95,8.73,5.6
			c2.99,1.65,6.17,2.95,9.48,3.69c3.27,0.74,6.77,0.92,9.68-0.45c1.44-0.68,2.67-1.73,3.6-3.05c0.94-1.31,1.61-2.84,2.07-4.44
			c0.93-3.21,1.14-6.66,1.09-10.08c-0.03-1.72-0.14-3.43-0.29-5.16l-0.12-1.3c-0.03-0.45-0.07-0.96-0.04-1.43
			c0.04-0.95,0.19-1.89,0.43-2.78c1-3.58,2.92-6.63,4.87-9.56c1.98-2.92,4.12-5.69,6.19-8.48c1.04-1.39,2.06-2.79,3.05-4.21
			c0.98-1.43,1.94-2.83,2.72-4.33c1.6-3.01,2.9-6.21,3.99-9.47c1.08-3.26,1.96-6.59,2.5-9.97c0.53-3.37,0.76-6.81,0.26-10.11
			c-0.48-3.27-1.86-6.46-4.5-8.26c-2.59-1.84-6.11-2.27-9.36-1.94c-3.3,0.36-6.51,1.62-9.5,3.23c-3,1.62-5.8,3.62-8.47,5.8
			c-5.32,4.38-10.1,9.43-14.56,14.73c-4.44,5.32-8.61,10.91-12.37,16.7l-0.28,0.42l-0.49-0.02c-6.66-0.32-13.38-0.84-19.92-2.58
			c-3.27-0.86-6.45-2.09-9.42-3.73c-2.99-1.62-5.7-3.67-8.21-5.92c-5.01-4.52-9.23-9.72-13.4-14.9c-4.16-5.2-8.21-10.47-12.34-15.68
			c-8.19-10.44-16.99-20.45-27.12-29.06c-5.05-4.3-10.43-8.24-16.19-11.54c-2.88-1.64-5.87-3.12-8.95-4.34
			C658.29,577.94,655.1,576.89,651.78,576.59z"/>
	</g>
</g>
<g>
	<path d="M579.54,304.06c-8.68-10.41-11.7-40.3-11.82-41.57c-0.35-3.55,0.77-5.66,1.77-6.81c0.96-1.1,2.75-2.41,5.86-2.41
		c0.65,0,1.34,0.06,2.04,0.17c18.36,2.99,39.96,20.36,40.87,21.09l3.26,2.64l-3.84,1.58c-0.12,0.05-12.56,5.2-20.92,11.43
		c-8.29,6.18-13.47,13.62-13.52,13.7l-1.75,2.53L579.54,304.06z"/>
	<path class="st9" d="M620.17,276.93c0,0-23.07-17.99-42.07-20.97c-4.89-0.77-7.87,1.5-7.36,6.49c0.91,8.96,4.59,32.49,11.9,40.94
		c0,0,5.66-7.92,14.87-14.52S620.17,276.93,620.17,276.93z"/>
	<g class="st11">
		<path class="st12" d="M572.45,259.28c17.04,2.68,37.35,17.42,41.35,20.43c3.73-1.74,6.37-2.78,6.37-2.78s-23.07-17.99-42.07-20.97
			c-3.63-0.57-6.21,0.54-7.08,3.19C571.48,259.16,571.95,259.2,572.45,259.28z"/>
		<path class="st13" d="M591.86,292.19c-4.42,3.18-8.02,6.65-10.57,9.4c0.44,0.65,0.89,1.26,1.36,1.8c0,0,5.66-7.92,14.87-14.52
			c0.9-0.65,1.85-1.29,2.82-1.91C597.44,288.53,594.48,290.31,591.86,292.19z"/>
	</g>
</g>
<g>
	<path d="M386.09,711.55c-13.75-70.37-6.3-136.79,6.16-207.7c13.01-74.06,33.39-129.88,54.17-153.16
		c7.54-8.45,15.36-12.74,23.22-12.74c4.07,0,8.15,1.16,12.12,3.45c30.64,17.69,56.8,60.57,79.87,98.4
		c6.84,11.21,13.3,21.81,19.46,31.03c10.09,15.12,27.09,16.75,33.93,16.75c1.39,0,2.21-0.07,2.21-0.07l5.2-0.47l-2.21,4.73
		l-44.03,94.06l-2.08-8.08c-2.8-10.85-13.44-39-28.91-39c-0.78,0-1.58,0.07-2.38,0.21c-17.06,2.95-23.88,48.21-26.04,66.64
		c0,0-11.47-56.2-29.1-56.02c-0.8,0.01-1.64,0.11-2.47,0.33c-17.28,4.48-27.38,65.03-28.79,82.79c0,0-10.97-63.18-31.81-63.14
		c-0.81,0-1.64,0.11-2.47,0.34c-3.61,0.98-13.17,9.32-24,65.42C392.06,666.83,386.09,711.55,386.09,711.55z"/>
	<path class="st0" d="M617.5,490.5c0,0-25.3,2.4-38.91-18c-26.72-40.04-59.31-105.97-98.33-128.5c-58.9-34-109.38,225-94.65,354
		c0,0,13.67-125,35.76-131c22.34-6.07,34.71,52,34.71,52s5.26-66,28.4-72c21.52-5.58,31.55,46,31.55,46s3.16-53,26.29-57
		s34.71,41,34.71,41L617.5,490.5z"/>
	<path class="st10" d="M579.72,539.63c0,0-83.75-183.83-114.04-175.81c-27.64,7.33-43.23,89.74-43.23,89.74s13.77-49.15,33.62-47.83
		C488.94,407.92,579.72,539.63,579.72,539.63z"/>
	<g>
		<path d="M579.72,539.63c-14.76-28.74-29.85-57.28-45.77-85.32c-8.02-13.98-16.16-27.89-24.92-41.38
			c-4.39-6.73-8.85-13.41-13.6-19.85c-4.76-6.42-9.74-12.7-15.34-18.18c-2.78-2.74-5.77-5.26-8.94-7.03
			c-1.58-0.83-3.22-1.45-4.7-1.55c-1.46-0.11-3,0.32-4.48,1.12c-1.48,0.8-2.9,1.94-4.19,3.27c-1.3,1.32-2.52,2.79-3.65,4.35
			c-2.27,3.12-4.24,6.53-6.08,10.03c-3.66,7.02-6.7,14.44-9.48,21.95c-2.77,7.52-5.28,15.16-7.66,22.84
			c-4.69,15.39-8.82,30.98-12.64,46.65c-3.85,15.67-7.36,31.42-10.67,47.24c2.22-16.01,5.09-31.92,8.27-47.77
			c3.26-15.84,6.89-31.61,11.29-47.22c2.19-7.8,4.56-15.57,7.28-23.23c2.72-7.66,5.7-15.27,9.39-22.63
			c1.85-3.68,3.93-7.28,6.39-10.71c1.22-1.72,2.58-3.38,4.1-4.93c1.51-1.56,3.25-3.02,5.31-4.15c2.05-1.13,4.53-1.9,7.11-1.73
			c2.56,0.17,4.76,1.08,6.74,2.1c3.89,2.16,7.12,4.91,10.1,7.82c5.91,5.86,10.96,12.3,15.78,18.87c4.8,6.58,9.32,13.33,13.65,20.19
			c8.61,13.75,16.7,27.78,24.34,42.03c7.7,14.23,15,28.65,22.09,43.18C566.46,510.16,573.33,524.79,579.72,539.63z"/>
	</g>
</g>
<g>
	<path d="M608.07,280.58c-7.44-15.19-1.05-51.84-0.78-53.39c0.92-5.18,4.04-8.27,8.57-8.46c1.84-0.08,3.84,0.34,5.96,1.25
		c22.28,9.55,43.81,37.32,44.72,38.5l2.69,3.5l-4.38,0.51c-0.18,0.02-17.91,2.12-30.81,6.87c-12.82,4.72-22.07,12.01-22.17,12.08
		l-2.43,1.93L608.07,280.58z"/>
	<path class="st9" d="M664.52,262.18c0,0-20.57-29.23-42.1-39.57c-5.54-2.66-9.98-1.11-11.31,4.88
		c-2.39,10.73-7.12,39.38-1.66,51.83c0,0,9.83-7.14,23.39-11.48C646.39,263.5,664.52,262.18,664.52,262.18z"/>
	<path class="st12" d="M614.43,227.5c16.83,8.08,33.07,27.7,39.36,35.88c6.21-0.87,10.72-1.2,10.72-1.2s-20.57-29.23-42.1-39.57
		c-5.2-2.5-9.42-1.28-11.02,3.82C612.36,226.64,613.37,226.99,614.43,227.5z"/>
</g>
<g>
	<path class="st0" d="M780.26,389.5c0,0,14-21,0-29s-25,3-25,3L780.26,389.5z"/>
	<g>
		<path d="M755.26,363.5c3.39-3.65,8.19-6.14,13.35-6.64c2.58-0.31,5.2,0.12,7.68,0.86c0.61,0.2,1.23,0.41,1.84,0.64l1.74,0.85
			l0.87,0.43l0.84,0.53c0.58,0.33,1.08,0.79,1.61,1.19c0.98,0.91,1.87,1.95,2.54,3.13c0.65,1.19,1.12,2.46,1.38,3.76
			c0.47,2.62,0.28,5.26-0.31,7.75c-0.57,2.49-1.5,4.86-2.6,7.12c-1.13,2.25-2.4,4.41-3.93,6.38c2.27-4.41,4.15-9.04,5-13.81
			c0.38-2.38,0.5-4.79-0.01-7.05c-0.27-1.12-0.67-2.2-1.22-3.18c-0.57-0.98-1.33-1.83-2.16-2.6c-0.46-0.35-0.87-0.75-1.37-1.04
			l-0.73-0.47l-0.8-0.4l-1.6-0.81l-1.67-0.62c-2.23-0.77-4.61-1.21-6.99-1.1C763.94,358.6,759.2,360.47,755.26,363.5z"/>
	</g>
</g>
<g>
	<path class="st0" d="M654.31,285.29c0,0-9.46-13.01-2.09-24.94c7.37-11.93,27.03-20.74,26.65-37.81c0,0,50.95,36.69,4.88,73.72
		L654.31,285.29z"/>
	<g>
		<path d="M654.31,285.29c-1.8-2.5-3.21-5.31-4.14-8.28c-0.92-2.97-1.36-6.13-1.02-9.27c0.29-3.16,1.58-6.16,3.28-8.81
			c1.77-2.61,3.89-4.92,6.08-7.12c2.19-2.2,4.46-4.29,6.66-6.43c2.22-2.12,4.38-4.28,6.3-6.62c1.93-2.33,3.6-4.85,4.76-7.58
			c0.57-1.37,1.01-2.78,1.3-4.23c0.26-1.45,0.38-2.92,0.36-4.39l-0.03-1.97l1.56,1.16c3.04,2.27,5.8,4.75,8.4,7.44
			c2.59,2.69,5.01,5.55,7.16,8.61c4.29,6.09,7.64,13.1,8.53,20.63c0.44,3.75,0.25,7.56-0.56,11.24c-0.78,3.69-2.34,7.15-4.17,10.39
			c-3.87,6.4-9.17,11.76-15.06,16.19l4.08-3.73l1.92-1.98c0.63-0.67,1.31-1.29,1.87-2.02c1.15-1.43,2.4-2.78,3.39-4.32
			c0.51-0.76,1.07-1.49,1.54-2.26l1.36-2.37c1.7-3.21,3.11-6.6,3.76-10.16c0.67-3.55,0.76-7.19,0.24-10.75
			c-0.98-7.15-4.2-13.88-8.44-19.75c-2.11-2.95-4.5-5.72-7.05-8.32c-2.56-2.57-5.26-5.09-8.12-7.25l1.53-0.81
			c0.01,1.61-0.13,3.22-0.43,4.81c-0.33,1.58-0.83,3.11-1.46,4.59c-1.28,2.94-3.08,5.59-5.11,7.99c-2.02,2.41-4.25,4.6-6.5,6.71
			c-2.28,2.1-4.6,4.12-6.82,6.24c-2.22,2.11-4.34,4.31-6.1,6.77l-0.63,0.94c-0.2,0.32-0.36,0.65-0.55,0.98
			c-0.35,0.66-0.76,1.3-0.99,2.01c-0.25,0.7-0.59,1.38-0.73,2.12c-0.17,0.73-0.42,1.45-0.48,2.2c-0.46,2.98-0.17,6.07,0.6,9.02
			c0.4,1.48,0.9,2.93,1.52,4.33C652.78,282.62,653.48,283.99,654.31,285.29z"/>
	</g>
</g>
<path class="st12" d="M465.08,636.85c22.34-16.37,52.2-26.66,68.67-29.96c16.47-3.3,28.66-0.04,1.49,5.96
	C485.48,623.84,451.45,646.84,465.08,636.85z"/>
<path d="M668.82,274.5c27.32,3.97,55.65,27,63.74,47s28.33,39,40.47,48s32.38,29,9.11,46s-35.92,19.5-51.6,22c0,0-13.15,19-48.57,15
	c0,0,8.09,28,30.35,54s53.62,77,51.6,100s-11.13,59-41.48,76s-73.86,32-100.17,31c-26.31-1-55.65-16-67.79-42s-31.37-59-6.07-105
	s54.64-65,54.64-89s-21.25-44-28.33-69s-26.27-79.96,19.22-118C620.25,268.5,634.42,269.5,668.82,274.5z"/>
<path d="M610.64,598c0,0,25.29,3,56.66,50c24.94,37.38,27.32,46,61.21,50.5c0,0,30.21-39.02,52.11-36.5
	c21.75,2.5,7.59,34.5,0.51,43.5s-16.61,18.29-16.61,26.29s1.83,31.43-22.85,23.71c-15.25-4.77-20.04-18.85-39.97-22.5
	c-40.98-7.5-101.18-19-117.37-33C564.54,682.88,550.95,605,610.64,598z"/>
<path class="st0" d="M671.26,272.5c27,3.97,55,27,63,47s28,39,40,48s32,29,9,46s-36.72,21-52.22,23.5c0,0-11.78,17.5-46.78,13.5
	c0,0,8,28,30,54s53,77,51,100s-11,59-41,76s-73,32-99,31s-55-16-67-42s-31-57-6-103s54-64,54-88s-21-45-28-70s-25.96-81.96,19-120
	C623.26,266.5,637.26,267.5,671.26,272.5z"/>
<path class="st13" d="M676.76,629c10-27,4-67-9-100s-11-82-11-82c8,3,27.82,4.53,27.82,4.53c1.66,5.23,10.15,29.88,29.68,52.97
	c22,26,52.5,63.5,51,100c-0.95,23.07-11.5,61.5-41.5,78.5s-72.5,29.5-98.5,28.5c-5.27-0.2-10.66-0.99-16.01-2.32
	C637.13,687.86,667.8,653.21,676.76,629z"/>
<path class="st14" d="M714.26,504.5c-19.54-23.09-28.03-47.74-29.68-52.97c0,0-7.03-0.54-14.4-1.61c3.73,10.98,14.29,39.21,31.03,59
	c22,26,52.5,63.5,51,100c-0.95,23.07-11.5,61.5-41.5,78.5c-10.18,5.77-21.79,11.01-33.71,15.39c16.35-5.05,32.89-11.94,46.76-19.8
	c30-17,40.55-55.43,41.5-78.5C766.76,568,736.26,530.5,714.26,504.5z"/>
<g>
	<path d="M609.25,709.18c9.46-7.62,18.47-15.77,26.85-24.54c2.09-2.2,4.21-4.36,6.22-6.63c1.01-1.12,2.05-2.23,3.05-3.37l2.97-3.44
		c2-2.28,3.86-4.66,5.79-7c1.83-2.41,3.75-4.75,5.49-7.23l2.65-3.68l2.53-3.76c0.86-1.24,1.64-2.54,2.44-3.82
		c0.79-1.29,1.62-2.55,2.33-3.88c3.05-5.2,5.65-10.66,7.39-16.39c3.55-11.47,4.23-23.7,3.59-35.71c-0.04-1.51-0.17-3.01-0.3-4.51
		c-0.14-1.5-0.23-3.01-0.4-4.51c-0.38-2.99-0.7-6-1.23-8.97c-0.91-5.97-2.23-11.88-3.69-17.74c-0.79-2.92-1.53-5.85-2.45-8.73
		c-0.84-2.91-1.82-5.76-2.79-8.63c-0.98-2.87-2.11-5.65-3.12-8.53l-1.51-4.33c-0.52-1.44-0.86-2.93-1.3-4.39
		c-3.35-11.75-5.09-23.86-6.2-35.97c-0.49-6.06-0.84-12.13-0.96-18.21c-0.14-6.07-0.13-12.15,0.17-18.22
		c-0.1,12.14,0.46,24.28,1.76,36.34c1.3,12.04,3.21,24.06,6.7,35.63c0.46,1.44,0.82,2.91,1.35,4.32l1.55,4.24
		c1.02,2.84,2.18,5.68,3.18,8.56c0.99,2.88,2,5.76,2.86,8.68c0.94,2.9,1.71,5.85,2.51,8.79c1.5,5.91,2.86,11.86,3.81,17.89
		c0.55,3,0.89,6.04,1.29,9.06c0.19,1.52,0.29,3.04,0.43,4.56c0.14,1.52,0.28,3.04,0.32,4.57c0.59,12.18-0.15,24.6-3.85,36.36
		c-1.82,5.88-4.52,11.46-7.63,16.71c-3.1,5.26-6.49,10.35-10.21,15.18C646.1,677.28,628.66,694.58,609.25,709.18z"/>
</g>
<g>
	<path class="st0" d="M613.76,596c0,0,25,3,56,50c24.65,37.38,27,46,60.5,50.5c0,0,29.86-39.02,51.5-36.5
		c21.5,2.5,7.5,34.5,0.5,43.5s-18.5,18.5-18.5,26.5s0,31-20.5,23.5c-14.85-5.43-19.81-18.85-39.5-22.5c-40.5-7.5-100-19-116-33
		C568.2,680.88,554.76,603,613.76,596z"/>
	<g>
		<path d="M613.76,596c3.29,0.54,6.41,1.81,9.42,3.22c3,1.44,5.88,3.15,8.65,5.01c5.53,3.74,10.63,8.08,15.37,12.77
			c9.5,9.39,17.56,20.13,24.89,31.24c3.69,5.54,7.31,11.12,11.02,16.62c3.7,5.5,7.45,11,11.92,15.79c4.43,4.83,9.92,8.55,16.1,10.69
			c6.16,2.21,12.71,3.31,19.25,4.2l-0.9,0.37c4.92-6.26,10.22-12.15,15.96-17.64c5.75-5.46,11.89-10.61,18.88-14.55
			c3.5-1.94,7.24-3.58,11.27-4.34c2.01-0.38,4.09-0.51,6.15-0.28c2.04,0.23,4.1,0.74,5.96,1.77c1.87,1,3.47,2.57,4.5,4.43
			c1.04,1.86,1.56,3.93,1.77,5.97c0.39,4.1-0.29,8.14-1.33,12c-1.06,3.86-2.51,7.59-4.23,11.18c-1.74,3.57-3.67,7.09-6.23,10.21
			c-2.52,3.09-5.28,5.93-7.96,8.8c-2.67,2.88-5.36,5.78-7.38,9.07c-1,1.65-1.81,3.42-2.1,5.28c-0.15,0.91-0.1,1.9-0.13,2.89
			c-0.02,0.99-0.06,1.98-0.12,2.97c-0.25,3.95-0.79,7.93-2.11,11.7c-0.67,1.87-1.55,3.7-2.79,5.28c-1.22,1.58-2.84,2.89-4.72,3.62
			c-1.87,0.74-3.91,0.88-5.88,0.68c-1.97-0.2-3.89-0.75-5.73-1.45c1.86,0.64,3.79,1.14,5.74,1.28c1.95,0.15,3.95-0.05,5.74-0.82
			c1.8-0.74,3.33-2.03,4.48-3.59c1.17-1.55,1.99-3.35,2.61-5.19c1.22-3.71,1.67-7.64,1.84-11.55c0.04-0.98,0.06-1.96,0.06-2.94
			c0.02-0.97-0.06-1.96,0.08-3.01c0.27-2.06,1.12-3.95,2.14-5.68c2.07-3.46,4.76-6.41,7.4-9.34c2.66-2.92,5.36-5.78,7.79-8.84
			c2.42-3.01,4.27-6.49,5.93-10.01c1.64-3.54,3.01-7.21,3.99-10.97c0.95-3.75,1.58-7.63,1.2-11.4c-0.2-1.87-0.68-3.71-1.58-5.29
			c-0.89-1.59-2.22-2.88-3.83-3.74c-1.6-0.88-3.44-1.33-5.31-1.54c-1.86-0.2-3.76-0.08-5.62,0.28c-3.74,0.72-7.32,2.29-10.69,4.18
			c-6.75,3.84-12.79,8.93-18.43,14.34c-5.61,5.45-10.93,11.28-15.78,17.4l-0.35,0.45l-0.54-0.08c-6.61-0.93-13.26-2.07-19.63-4.38
			c-3.18-1.15-6.26-2.67-9.08-4.57c-2.84-1.88-5.37-4.18-7.67-6.65c-4.6-4.96-8.34-10.53-12.04-16.06
			c-3.66-5.57-7.2-11.19-10.82-16.77c-7.15-11.18-15.06-21.9-24.32-31.4c-4.62-4.75-9.6-9.17-15.01-13
			c-2.71-1.91-5.54-3.65-8.49-5.17C620.11,597.98,617.03,596.63,613.76,596z"/>
	</g>
</g>
<g>
	<g>
		<path d="M688.26,469.5c-1.42,1.72-3.61,2.65-5.73,3.23c-2.15,0.58-4.39,0.79-6.59,0.73c-1.11,0-2.19-0.16-3.29-0.25
			c-1.08-0.19-2.16-0.34-3.23-0.6c-1.06-0.27-2.11-0.55-3.14-0.89c-1.02-0.38-2.04-0.76-3.03-1.23c1.1,0.03,2.17,0.15,3.24,0.27
			c1.07,0.11,2.13,0.18,3.19,0.31c2.12,0.16,4.21,0.37,6.31,0.38l1.57,0.04c0.52-0.02,1.04-0.05,1.56-0.05
			c1.04-0.03,2.08-0.12,3.11-0.25C684.28,470.92,686.35,470.53,688.26,469.5z"/>
	</g>
	<g>
		<path d="M697.26,487.5c-1.98,2.02-4.49,3.49-7.11,4.58c-2.63,1.1-5.44,1.79-8.28,2.11c-2.84,0.22-5.72,0.25-8.52-0.27
			c-1.41-0.15-2.77-0.61-4.14-0.93c-1.35-0.42-2.66-0.95-3.95-1.49c1.41,0.12,2.77,0.38,4.15,0.53l2.06,0.19l1.02,0.11l1.03,0.04
			c0.68,0.02,1.37,0.05,2.04,0.1c0.68,0.01,1.36-0.02,2.04-0.03l1.02,0l1.01-0.07c0.68-0.06,1.35-0.08,2.03-0.16
			c2.7-0.27,5.35-0.83,7.97-1.59C692.24,489.84,694.8,488.85,697.26,487.5z"/>
	</g>
	<g>
		<path d="M710.26,506.5c-2.15,2.56-4.87,4.62-7.77,6.31c-2.91,1.7-6.05,3.01-9.32,3.86c-3.27,0.82-6.64,1.36-10.01,1.26
			c-1.68,0.06-3.36-0.19-5.02-0.36c-0.83-0.07-1.65-0.3-2.46-0.47c-0.81-0.18-1.62-0.38-2.42-0.59c0.84,0,1.67,0.02,2.49,0.04
			c0.83,0.01,1.64,0.11,2.46,0.04c1.64-0.06,3.27-0.02,4.89-0.22c3.24-0.21,6.43-0.82,9.55-1.63c3.14-0.78,6.16-1.95,9.11-3.31
			C704.71,510.05,707.56,508.43,710.26,506.5z"/>
	</g>
	<g>
		<path d="M729.55,529c-3.27,2.99-7.13,5.32-11.16,7.21c-4.03,1.9-8.3,3.33-12.69,4.21c-1.09,0.26-2.2,0.41-3.3,0.56l-1.66,0.24
			c-0.55,0.09-1.11,0.16-1.67,0.17l-3.34,0.19c-1.11,0.08-2.23-0.02-3.35-0.04c-2.23,0.01-4.44-0.33-6.64-0.61
			c-1.1-0.12-2.18-0.41-3.26-0.65c-1.08-0.25-2.15-0.51-3.22-0.79c1.11,0.07,2.21,0.15,3.3,0.24c1.1,0.07,2.18,0.25,3.28,0.22
			c2.19,0.04,4.37,0.17,6.54,0.02c4.35-0.09,8.67-0.66,12.91-1.52c4.26-0.82,8.42-2.12,12.48-3.68
			C721.84,533.2,725.79,531.32,729.55,529z"/>
	</g>
	<g>
		<path d="M746.26,557.5c-3.72,3.66-8.27,6.45-13.08,8.56c-4.81,2.1-9.94,3.59-15.19,4.19l-0.98,0.14l-0.99,0.06l-1.97,0.11
			l-1.97,0.11c-0.66,0.05-1.32-0.02-1.97-0.03l-3.94-0.17c-1.31-0.14-2.61-0.35-3.91-0.54l-1.95-0.29c-0.65-0.1-1.28-0.29-1.92-0.45
			l-3.8-0.98c-0.31-0.09-0.63-0.16-0.94-0.26l-0.92-0.34l-1.84-0.69c-1.22-0.46-2.43-0.94-3.64-1.42c1.27,0.29,2.54,0.58,3.8,0.89
			l1.88,0.47l0.94,0.24c0.32,0.07,0.64,0.11,0.96,0.16l3.81,0.64c0.64,0.09,1.26,0.25,1.9,0.31l1.92,0.17l3.83,0.34l3.84,0.03
			c0.64-0.01,1.28,0.06,1.91,0l1.91-0.13l1.91-0.13l0.95-0.07l0.95-0.15l3.79-0.54l3.74-0.83c2.48-0.62,4.92-1.37,7.32-2.27
			C737.39,562.83,742.02,560.51,746.26,557.5z"/>
	</g>
	<g>
		<path d="M757.26,592.5c-5,2.03-10.22,3.5-15.5,4.68c-5.28,1.18-10.65,1.96-16.05,2.42c-5.41,0.42-10.85,0.38-16.26-0.11
			c-5.4-0.54-10.74-1.71-15.82-3.55c5.3,1.03,10.59,1.75,15.93,1.99c1.33,0.07,2.67,0.04,4,0.09l2,0.04l2-0.07
			c1.33-0.05,2.67-0.03,4-0.12l3.99-0.27c5.32-0.42,10.63-1.1,15.91-1.96C746.75,594.77,752.01,593.74,757.26,592.5z"/>
	</g>
	<g>
		<path d="M757.39,626.15c-5.1,1.77-10.39,2.97-15.72,3.87c-5.33,0.9-10.74,1.4-16.16,1.59c-5.42,0.14-10.86-0.18-16.23-0.95
			c-5.37-0.82-10.64-2.27-15.61-4.36c5.24,1.3,10.49,2.29,15.8,2.81c1.33,0.14,2.66,0.18,3.99,0.29l1.99,0.14l2,0.04
			c1.33,0.01,2.66,0.11,4,0.09l4-0.06c5.34-0.14,10.67-0.55,15.99-1.13C746.77,627.88,752.08,627.12,757.39,626.15z"/>
	</g>
	<g>
		<path d="M739.26,661.5c-2.22,1-4.65,1.45-7.06,1.77c-2.42,0.27-4.87,0.39-7.31,0.31c-2.44-0.03-4.87-0.31-7.29-0.58l-3.61-0.58
			c-1.2-0.19-2.38-0.49-3.58-0.73c-2.39-0.49-4.71-1.21-7.05-1.85c-2.32-0.73-4.61-1.52-6.89-2.34c-2.25-0.9-4.5-1.81-6.71-2.78
			c-2.18-1.05-4.37-2.09-6.51-3.22c2.32,0.72,4.59,1.51,6.86,2.3l6.86,2.22c2.32,0.64,4.59,1.38,6.91,2
			c2.32,0.58,4.62,1.27,6.96,1.72c4.65,1.1,9.37,1.86,14.12,2.29c2.38,0.21,4.76,0.31,7.15,0.27
			C734.52,662.25,736.91,662.08,739.26,661.5z"/>
	</g>
</g>
<ellipse transform="matrix(0.9768 -0.2141 0.2141 0.9768 -57.8627 154.1036)" cx="682.57" cy="344.21" rx="5.11" ry="8.11"/>
<ellipse transform="matrix(0.9768 -0.2141 0.2141 0.9768 -54.1786 161.6657)" cx="719.33" cy="330.98" rx="5.11" ry="8.11"/>
<g>
	<path d="M729.76,402c-0.73-4.47-1.95-8.82-4.05-12.55c-1.08-1.84-2.37-3.51-3.97-4.76c-0.78-0.64-1.65-1.17-2.56-1.6
		c-0.9-0.43-1.97-0.8-2.97-1.13c-4.05-1.31-8.36-1.66-12.53-0.62c-2.08,0.51-4.12,1.29-6.09,2.31c-1.99,0.98-3.87,2.22-5.85,3.36
		c1.56-1.65,3.22-3.22,5.08-4.6c1.87-1.36,3.94-2.52,6.19-3.29c4.49-1.62,9.6-1.48,14.11,0c1.14,0.4,2.2,0.79,3.32,1.34
		c1.11,0.56,2.18,1.23,3.11,2.06c1.84,1.67,3.3,3.69,4.24,5.88C729.74,392.75,730.28,397.48,729.76,402z"/>
</g>
<path class="st15" d="M721.26,400.5c0,0-1.78-8.41-6-11c-2.68-1.65-8.75-1.31-15,2c0,0,8.5,0.5,12.5,2.5S721.26,400.5,721.26,400.5z
	"/>
<g>
	<path d="M721.26,400.5c-1.09-2.17-2.13-4.28-3.38-6.17c-1.23-1.86-2.7-3.59-4.36-3.97c-1.86-0.5-4.13-0.4-6.35-0.14
		c-2.25,0.27-4.5,0.78-6.91,1.28c1.79-1.7,3.99-2.92,6.38-3.69c2.4-0.72,5.01-1.09,7.74-0.3c0.34,0.1,0.69,0.25,1.02,0.41
		c0.34,0.18,0.68,0.37,0.97,0.59c0.59,0.43,1.08,0.93,1.51,1.45c0.86,1.05,1.47,2.19,1.95,3.35
		C720.76,395.64,721.27,398.05,721.26,400.5z"/>
</g>
<g>
	<path d="M684.26,450.5c1.73,5.47,3.93,10.77,6.32,15.98c2.41,5.2,5.08,10.27,7.99,15.2c2.89,4.94,6.09,9.7,9.48,14.3l2.58,3.43
		l2.72,3.32c1.79,2.22,3.71,4.37,5.55,6.56c7.44,8.73,14.77,17.58,21.48,26.92c6.71,9.32,12.8,19.17,17.53,29.7
		c4.67,10.53,7.96,21.86,8.35,33.51c0.05,5.83,0.12,11.58-0.43,17.37c-0.45,5.78-1.44,11.54-2.85,17.21
		c-2.91,11.29-8.03,22.22-15.61,31.2c-1.85,2.28-3.9,4.38-6.02,6.38c-1.05,1.02-2.15,1.97-3.26,2.92c-1.14,0.91-2.26,1.84-3.44,2.69
		c-2.3,1.77-4.77,3.31-7.25,4.79c-2.47,1.49-5.04,2.81-7.65,4.02c9.5-6.47,18.14-14,24.91-22.96c1.71-2.22,3.28-4.54,4.71-6.95
		c1.47-2.38,2.82-4.83,4.01-7.36c2.4-5.05,4.39-10.31,5.88-15.74c0.78-2.7,1.44-5.45,2.03-8.21c0.54-2.77,1.08-5.55,1.49-8.36
		c0.44-2.8,0.75-5.63,1.09-8.46c0.11-1.42,0.33-2.84,0.35-4.25c0.02-1.41,0.08-2.82,0-4.24c-0.28-11.33-3.35-22.47-7.85-32.91
		c-4.56-10.44-10.49-20.28-17.06-29.63c-6.57-9.36-13.79-18.27-21.13-27.07C703.01,492.66,691.18,472.37,684.26,450.5z"/>
</g>
<g>
	<g>
		<g>
			<path class="st0" d="M628.94,508.15c0,0,32.71,42.81,47.99,49.93c0,0,15.11,9.64,22.25,9.1c7.15-0.54-22.52,25.43-32.03,23.27
				c-9.51-2.16-57.05-12.94-77.86-36.16C589.29,554.28,581.16,508.53,628.94,508.15z"/>
			<g>
				<path d="M628.94,508.15c3.75,4.43,7.55,8.82,11.39,13.16c3.83,4.35,7.73,8.63,11.68,12.85c3.97,4.2,8.02,8.32,12.23,12.24
					c2.11,1.95,4.27,3.83,6.5,5.58c2.23,1.73,4.55,3.38,6.93,4.51l0.08,0.04l0.12,0.07c5.36,3.21,11.1,6.27,16.89,8.01
					c0.71,0.18,1.44,0.38,2.13,0.48l1.03,0.14l0.95,0c0.09,0.02,0.48-0.03,0.9,0.01c0.38,0.04,1.08,0.14,1.75,0.79
					c0.16,0.17,0.31,0.38,0.42,0.58c0.09,0.19,0.17,0.4,0.22,0.61c0.05,0.2,0.05,0.34,0.06,0.51c0.01,0.18,0,0.32-0.02,0.42
					l-0.06,0.36l-0.08,0.28c-0.05,0.2-0.11,0.34-0.17,0.48c-0.49,1.1-1.02,1.77-1.57,2.49c-2.2,2.7-4.6,4.89-7.09,7.06
					c-2.48,2.15-5.08,4.14-7.78,6.01c-2.7,1.86-5.5,3.62-8.51,5.11c-1.51,0.74-3.07,1.42-4.77,1.93c-0.85,0.25-1.74,0.46-2.7,0.56
					c-0.48,0.05-0.98,0.07-1.5,0.05c-0.27-0.03-0.53-0.03-0.81-0.09l-0.41-0.08l-0.31-0.07c-3.14-0.73-6.28-1.53-9.4-2.37
					c-12.48-3.38-24.77-7.6-36.47-13.16c-5.84-2.79-11.53-5.92-16.87-9.6c-5.34-3.65-10.32-7.89-14.43-12.85
					c4.54,4.57,9.74,8.34,15.21,11.63c5.48,3.28,11.23,6.07,17.1,8.57c11.76,4.96,24,8.75,36.37,11.87c3.1,0.78,6.21,1.48,9.33,2.17
					l0.28,0.06l0.18,0.03c0.11,0.03,0.26,0.02,0.39,0.04c0.28,0.01,0.58,0,0.9-0.04c0.64-0.07,1.32-0.23,2.01-0.44
					c1.38-0.42,2.78-1.03,4.14-1.71c5.49-2.79,10.62-6.62,15.44-10.64c2.37-2.03,4.74-4.19,6.61-6.47c0.45-0.55,0.88-1.18,1.04-1.55
					c0.02-0.04,0.03-0.08,0.03-0.08l0.01-0.01c-0.01,0.02-0.01,0.04-0.01,0.06c0,0.01,0,0.05,0,0.13c0,0.07,0.01,0.11,0.03,0.21
					c0.02,0.11,0.06,0.23,0.12,0.32c0.05,0.12,0.14,0.24,0.24,0.34c0.37,0.38,0.67,0.35,0.65,0.36c0.02,0,0.01,0-0.3,0l-1.46-0.02
					l-1.35-0.19c-0.46-0.05-0.87-0.17-1.3-0.27c-0.42-0.11-0.86-0.19-1.26-0.32c-3.28-0.97-6.28-2.38-9.2-3.86
					c-2.92-1.52-5.72-3.12-8.51-4.9l0.2,0.11c-2.84-1.42-5.23-3.23-7.51-5.12c-2.27-1.91-4.42-3.91-6.5-5.97
					c-4.17-4.12-8.07-8.46-11.86-12.87c-3.8-4.41-7.44-8.95-11.01-13.53C635.74,517.57,632.27,512.91,628.94,508.15z"/>
			</g>
		</g>
		<g>
			<path class="st16" d="M646.74,598.33c0,0-27.25,24.86-13.37-27.88"/>
			<g>
				<path d="M657.99,534.4c0,0,51.59,23.6,68.76,24.19c0,0,15.97-31.59,24.62-25.37c3.58,2.58-4.07,11.43-4.46,17.39
					c-0.13,1.99,0.52,2.79,1.55,2.52c7.08-1.81,24.03-27.03,34.02-23.34c0.72,0.27,1.92,1.72,1.16,2.93
					c-1.43,2.28-4.09,6.17-7.19,9.71c-3.47,3.97-12.33,10.81-12.33,10.81s0.81,1.35,0.88,1.38c0.23,0.11,7.36-5.31,13.19-11.3
					c3.37-3.46,5.78-7.74,7.43-9.8c0.86-1.07,2.57-1.07,3.14-0.74c1.17,0.69,2.35,1.47,3.49,2.33c0.65,0.5,1.57,2.32,0.82,3.44
					c-1.57,2.34-4.65,6.51-8.22,10.32c-3.94,4.22-14.07,11.77-14.07,11.77l0.88,1.38c0,0,8.04-5.92,14.57-12.18
					c3.57-3.42,6.52-7.55,8.3-9.53c0.98-1.09,2.68-0.46,3.16,0.2c1.48,2.02,2.15,3.6,2.66,6.11c0.14,0.68,0.46,1.71-1.19,3.73
					c-1.61,1.96-4.54,5.52-7.99,8.44c-3.72,3.15-12.35,8.38-12.35,8.38s0.35,1.29,0.34,1.4c-0.01,0.23,11.4-6.12,15.54-9.38
					c0.51-0.4,1.24-0.16,1.43,0.46c0.27,0.88,0.4,2.15-0.32,3.48c-1.83,3.38-2.03,3.52-6.24,7.42c-32.3,29.86-52.11,15.4-61.9,17.17
					c-9.79,1.76-58.72,10.59-87.51-2.93C640.15,584.82,629.66,552.42,657.99,534.4z"/>
			</g>
			<g>
				<path class="st17" d="M658.89,529.77c14.56,7.43,52.76,26.27,66.54,26.75c0,0,10.97-23.16,21.61-22.48
					c4.33,0.28-1.62,13.75-2.01,19.72c-0.13,1.99,2.34,2.6,3.37,2.34c7.08-1.81,24.03-27.03,34.02-23.34
					c0.72,0.27,1.92,1.72,1.16,2.93c-1.43,2.28-4.09,6.17-7.19,9.71c-3.47,3.97-12.33,10.81-12.33,10.81s0.81,1.35,0.88,1.38
					c0.23,0.11,7.36-5.31,13.19-11.3c3.37-3.46,5.78-7.74,7.43-9.8c0.86-1.07,2.57-1.07,3.14-0.74c1.17,0.69,2.35,1.47,3.49,2.33
					c0.65,0.5,1.57,2.32,0.82,3.44c-1.57,2.34-4.65,6.51-8.22,10.32c-3.94,4.22-14.07,11.77-14.07,11.77l0.88,1.38
					c0,0,8.04-5.92,14.57-12.18c3.57-3.42,6.52-7.55,8.3-9.53c0.98-1.09,2.68-0.46,3.16,0.2c1.48,2.02,2.15,3.6,2.66,6.11
					c0.14,0.68,0.46,1.71-1.19,3.73c-1.61,1.96-4.54,5.52-7.99,8.44c-3.72,3.15-17.87,11.9-17.87,11.9s-0.5,2.15-0.5,2.26
					c-0.01,0.24,17-9.95,21.89-13.74c0.61-0.47,1.49-0.24,1.8,0.47c0.33,0.74,0.5,1.8-0.08,3.1c-1.19,2.7-2.91,4.69-7.22,8.48
					c-34.18,29.96-51.72,14.7-61.51,16.47c-9.4,1.69-59.95,8.4-89.44-3.05c-2.35-0.91-4.29-2.64-5.43-4.89
					c-4.79-9.41-15-36.29,14.04-52.78C650.49,527.85,655.06,527.81,658.89,529.77z"/>
			</g>
			<path class="st16" d="M712.67,600.53c0,0,16.51,19.09,35.1-0.5"/>
			<polygon class="st18" points="703.07,598.4 711.1,604.93 716.44,599.59 710.48,591.74 			"/>
			<polygon class="st18" points="648.3,588.69 642.48,597.26 648.25,602.12 655.56,595.51 			"/>
			<polygon class="st18" points="749.61,590.41 743.45,598.73 749.02,603.82 756.59,597.51 			"/>
			<g>
				<path d="M750.47,596.96l-11.71-29.45c-0.44-1.11-0.24-2.37,0.51-3.29l6.06-7.38c0.42-0.51,0.68-1.15,0.73-1.81l0.45-5.42
					c0.08-0.92,0.53-1.76,1.26-2.32l6.06-4.69c1.34-1.03,3.24-0.88,4.39,0.35l2.28,2.43c0.32,0.35,0.57,0.76,0.72,1.21l12.12,36.48
					c0.04,0.13,0.09,0.26,0.15,0.38l2.83,5.93c0.34,0.72,0.41,1.54,0.2,2.3l0,0c-0.3,1.05-1.09,1.88-2.12,2.22l-17.88,5.9
					c-0.8,0.26-1.67,0.21-2.43-0.15l-1.97-0.94C751.36,598.36,750.77,597.73,750.47,596.96z"/>
				<path class="st19" d="M758.07,547.43c-1.2,0.98-2.41,1.95-3.62,2.9l-1.83,1.43l-0.45,0.35c-0.13,0.1-0.24,0.22-0.33,0.35
					c-0.19,0.27-0.31,0.54-0.37,0.89l-0.99,4.53l-0.25,1.13l-0.13,0.57c-0.06,0.24-0.15,0.47-0.26,0.69
					c-0.11,0.21-0.27,0.44-0.4,0.6l-0.37,0.45l-0.73,0.9c-0.97,1.2-1.95,2.4-2.94,3.59l-0.73,0.88c-0.16,0.2-0.26,0.44-0.31,0.68
					c-0.05,0.25-0.04,0.51,0.04,0.74c0.02,0.07,0.03,0.1,0.07,0.19l0.11,0.27l0.21,0.54l3.35,8.65l3.25,8.68l1.59,4.36l0.79,2.18
					c0.13,0.34,0.26,0.79,0.36,0.98c0.12,0.24,0.3,0.44,0.53,0.6c0.22,0.16,0.48,0.26,0.76,0.3c0.14,0.02,0.28,0.02,0.41,0.01
					c0.07-0.01,0.14-0.02,0.21-0.03l0.27-0.07l2.25-0.57l4.51-1.11c3.01-0.71,6.02-1.43,9.05-2.07c-2.92,1.03-5.86,1.99-8.81,2.94
					l-4.42,1.4l-2.22,0.69l-0.29,0.09c-0.12,0.03-0.24,0.06-0.36,0.08c-0.24,0.04-0.49,0.05-0.74,0.03c-0.5-0.04-0.98-0.2-1.41-0.47
					c-0.42-0.27-0.79-0.64-1.04-1.08c-0.13-0.22-0.23-0.47-0.29-0.63l-0.22-0.54l-0.86-2.15l-1.71-4.31l-3.34-8.65l-3.25-8.69
					l-0.2-0.54l-0.1-0.27c-0.03-0.09-0.09-0.24-0.11-0.36c-0.13-0.51-0.14-1.04-0.03-1.55c0.12-0.51,0.35-0.99,0.69-1.38l0.77-0.88
					c1.01-1.17,2.04-2.32,3.08-3.47l0.77-0.86l0.39-0.43c0.12-0.13,0.19-0.22,0.27-0.35c0.07-0.12,0.13-0.25,0.17-0.39l0.15-0.55
					l0.32-1.11l1.29-4.46c0.11-0.41,0.33-0.85,0.62-1.18c0.15-0.17,0.32-0.32,0.5-0.45l0.49-0.32l1.95-1.26
					C755.45,549.07,756.76,548.25,758.07,547.43z"/>
			</g>
			<g>
				<path d="M647.04,566.81l-1.25,22.93c-0.03,0.54,0.17,1.06,0.54,1.45l7.03,7.21c0.35,0.36,0.82,0.56,1.32,0.58l48.19,1.53
					c0.49,0.02,0.96-0.15,1.33-0.47l7.74-6.75c0.38-0.33,0.61-0.79,0.65-1.28l1.95-22.16c0.05-0.58-0.16-1.15-0.58-1.55l-0.96-0.92
					c-0.34-0.33-0.8-0.52-1.28-0.54l-62.7-1.84C647.98,564.96,647.1,565.76,647.04,566.81z"/>
				<g>
					<circle class="st20" cx="692.24" cy="596.35" r="2.34"/>
					<circle class="st20" cx="685.38" cy="596.17" r="2.34"/>
					<circle class="st20" cx="678.52" cy="596" r="2.34"/>
					<circle class="st20" cx="671.66" cy="595.83" r="2.34"/>
					<circle class="st20" cx="664.8" cy="595.66" r="2.34"/>
				</g>
				<g>
					<circle class="st21" cx="690.41" cy="589.51" r="2.34"/>
					<circle class="st21" cx="683.55" cy="589.34" r="2.34"/>
					<circle class="st21" cx="676.69" cy="589.16" r="2.34"/>
					<circle class="st21" cx="669.83" cy="588.99" r="2.34"/>
					<circle class="st21" cx="662.97" cy="588.82" r="2.34"/>
				</g>
				<path class="st19" d="M709.86,568.6c-4.9,0.13-9.8,0.16-14.7,0.14c-4.9-0.02-9.79-0.08-14.69-0.18
					c-2.45-0.03-4.89-0.12-7.34-0.18c-2.45-0.06-4.89-0.13-7.34-0.23c-4.89-0.16-9.78-0.37-14.67-0.61l0.4-0.1l-2.23,1.18l0.37-0.58
					c-0.14,1.62-0.27,3.25-0.43,4.87l-0.46,4.86l-0.51,4.86c-0.17,1.62-0.36,3.24-0.56,4.86c0.01-1.63,0.03-3.26,0.06-4.89
					l0.12-4.89l0.16-4.88c0.05-1.63,0.13-3.25,0.19-4.88l0.02-0.37l0.35-0.21l2.17-1.28l0.17-0.1l0.23,0
					c4.89,0.07,9.79,0.16,14.68,0.31c2.45,0.06,4.89,0.14,7.34,0.23c2.45,0.09,4.89,0.16,7.34,0.28c4.89,0.21,9.78,0.44,14.67,0.73
					C700.09,567.84,704.98,568.17,709.86,568.6z"/>
				<circle class="st21" cx="654.9" cy="573.83" r="3.74"/>
				<circle class="st21" cx="664.88" cy="574.43" r="3.74"/>
				<circle class="st20" cx="655.34" cy="574.52" r="3.74"/>
				<circle class="st20" cx="665.32" cy="575.12" r="3.74"/>
				<circle class="st21" cx="702.66" cy="578.49" r="8.42"/>
				<path class="st22" d="M700.9,572.91l0.05,2.58c0.01,0.46-0.38,0.83-0.84,0.8l-3.04-0.21c-0.46-0.03-0.85,0.34-0.84,0.8
					l0.05,2.58c0.01,0.44,0.37,0.78,0.8,0.78l2.64-0.05c0.44-0.01,0.8,0.35,0.81,0.79l0.01,2.27c0,0.4,0.3,0.74,0.7,0.78l2.33,0.27
					c0.44,0.05,0.84-0.27,0.88-0.71l0.25-2.77c0.04-0.41,0.38-0.72,0.78-0.72l2.35-0.01c0.4,0,0.74-0.3,0.78-0.7l0.26-2.24
					c0.06-0.48-0.32-0.89-0.8-0.88l-2.45,0.04c-0.47,0.01-0.84-0.39-0.8-0.86l0.23-2.54c0.04-0.47-0.33-0.87-0.8-0.86l-2.56,0.05
					C701.24,572.11,700.89,572.47,700.9,572.91z"/>
			</g>
			<g>
				<path class="st21" d="M724.67,559.91c-0.38,2.38-0.58,4.65-0.59,6.9c-0.01,2.24,0.12,4.45,0.52,6.62
					c0.05,0.55,0.22,1.08,0.32,1.62c0.11,0.54,0.21,1.09,0.38,1.61c0.15,0.53,0.3,1.07,0.44,1.61l0.55,1.59
					c0.31,1.09,0.81,2.11,1.21,3.2c0.42,1.08,0.97,2.11,1.37,3.28c-0.93-0.76-1.82-1.59-2.62-2.5c-0.72-0.96-1.55-1.89-2.1-2.99
					c-1.29-2.1-2.05-4.5-2.51-6.92c-0.45-2.44-0.37-4.97,0.1-7.38C722.25,564.15,723.14,561.8,724.67,559.91z"/>
			</g>
			<g>
				<path class="st21" d="M720,557.75c-0.71,2.87-1.09,5.68-1.23,8.49c-0.14,2.8-0.06,5.58,0.31,8.33c0.07,0.69,0.23,1.37,0.33,2.06
					l0.16,1.03l0.24,1.02l0.46,2.05c0.21,0.67,0.4,1.34,0.59,2.03l0.28,1.03l0.35,1l0.68,2.04c0.47,1.36,1.06,2.68,1.49,4.12
					c-0.99-1.09-1.95-2.23-2.8-3.45l-1.17-1.91c-0.2-0.32-0.38-0.64-0.57-0.97l-0.47-1.02c-0.31-0.68-0.61-1.37-0.91-2.06
					c-0.26-0.7-0.47-1.43-0.7-2.15l-0.33-1.08l-0.23-1.11c-0.13-0.74-0.31-1.48-0.4-2.23c-0.39-3-0.27-6.08,0.34-9.03
					C717.07,562.98,718.15,560.1,720,557.75z"/>
			</g>
		</g>
	</g>
	<path class="st12" d="M651.02,548.61c37.8,11.97,68.88,20.94,77.9,18.08c9.43-2.99,20.05-25.79,16.53-28.98
		c-3.52-3.19-18.3,21.71-18.3,21.71c-13.55-0.47-52.32-18.92-66.67-26.14C648.79,527.42,628.65,541.53,651.02,548.61z"/>
</g>
<g>
	<path d="M732.35,435.55c-1.92,2.79-4.45,5.1-7.17,7.09c-1.32,1.06-2.82,1.86-4.25,2.77c-1.48,0.81-3.01,1.54-4.54,2.27
		c-1.58,0.59-3.16,1.23-4.76,1.79l-4.9,1.36c-3.32,0.64-6.65,1.35-10.04,1.54c-3.37,0.45-6.76,0.35-10.15,0.41
		c-3.39-0.06-6.76-0.47-10.12-0.8c-3.32-0.63-6.66-1.18-9.94-1.97l-4.87-1.39c-1.61-0.5-3.23-0.97-4.82-1.5l0.05-0.19
		c1.67,0.24,3.32,0.54,4.98,0.8l4.93,0.91l9.91,1.36c1.65,0.17,3.32,0.27,4.97,0.41l2.48,0.24l1.24,0.12
		c0.41,0.02,0.83,0.02,1.24,0.03c3.32,0.06,6.65,0.29,9.96-0.03c3.33-0.09,6.6-0.69,9.88-1.22l4.84-1.19
		c1.58-0.5,3.14-1.08,4.72-1.61c1.52-0.66,3.05-1.32,4.54-2.05c1.43-0.84,2.95-1.56,4.29-2.55c2.76-1.84,5.35-4.04,7.35-6.71
		L732.35,435.55z"/>
</g>
<g>
	<path d="M578.26,408.5c-1.71-5.64-3.51-11.26-5.03-16.96c-1.52-5.7-2.85-11.46-3.86-17.29c-2.01-11.64-2.81-23.63-1.19-35.47
		c1.55-11.81,5.56-23.42,12.13-33.49c3.27-5.03,7.1-9.71,11.38-13.91c4.31-4.21,8.91-7.95,13.77-11.47
		c4.88-3.46,10.13-6.57,15.84-8.72c5.7-2.18,11.81-3.27,17.85-3.5c6.05-0.24,12.03,0.28,17.93,0.93c2.95,0.34,5.89,0.73,8.81,1.13
		c2.93,0.42,5.82,0.78,8.85,1.36c11.93,2.41,22.98,7.78,32.78,14.69c4.92,3.45,9.51,7.36,13.74,11.64c4.21,4.3,8.05,9,11.19,14.22
		c0.78,1.3,1.52,2.64,2.18,4.03c0.34,0.69,0.66,1.38,0.95,2.1l0.86,2.05c1.1,2.64,2.38,5.21,3.8,7.72
		c2.84,5.02,6.21,9.77,9.87,14.28c3.66,4.52,7.64,8.79,11.8,12.88c4.16,4.08,8.54,7.97,13.15,11.52c4.75,3.64,9.2,7.73,12.94,12.5
		c1.85,2.39,3.52,4.96,4.79,7.76c1.27,2.79,2.1,5.86,2.17,9c0.06,3.14-0.72,6.3-2.19,9.04c-1.46,2.75-3.48,5.12-5.75,7.13
		c-1.13,1.01-2.34,1.93-3.55,2.8c-1.2,0.87-2.41,1.73-3.64,2.56c-2.45,1.67-4.96,3.26-7.51,4.77
		c-10.21,6.01-21.16,10.87-32.72,13.67c-5.77,1.38-11.71,2.22-17.69,2.03c-2.97-0.1-5.99-0.55-8.85-1.28
		c-2.87-0.67-5.74-1.37-8.6-2.11c-11.42-2.95-22.76-6.33-33.7-10.77c-5.46-2.24-10.83-4.74-15.91-7.74c-2.54-1.51-5-3.15-7.29-5.02
		c-1.14-0.93-2.25-1.92-3.25-3c-0.99-1.09-1.96-2.23-2.57-3.58c0.63,1.34,1.62,2.46,2.62,3.53c1.02,1.06,2.14,2.02,3.29,2.93
		c2.31,1.82,4.79,3.42,7.35,4.87c5.12,2.9,10.51,5.3,15.98,7.44c10.96,4.28,22.31,7.51,33.74,10.3c2.86,0.7,5.73,1.36,8.6,1.99
		c2.86,0.69,5.71,1.1,8.63,1.17c5.82,0.14,11.65-0.74,17.31-2.14c11.35-2.85,22.14-7.75,32.17-13.77c2.51-1.52,4.96-3.11,7.37-4.77
		c2.4-1.68,4.81-3.36,6.88-5.33c2.08-1.96,3.91-4.17,5.16-6.67c1.27-2.48,1.89-5.24,1.78-7.99c-0.11-2.76-0.89-5.49-2.11-8.03
		c-1.21-2.55-2.81-4.93-4.61-7.16c-3.62-4.45-7.99-8.32-12.65-11.76c-9.56-7.14-18.24-15.36-25.88-24.55
		c-3.8-4.6-7.33-9.46-10.35-14.67c-1.51-2.61-2.89-5.3-4.08-8.09l-0.87-2.02c-0.27-0.65-0.57-1.29-0.89-1.92
		c-0.62-1.27-1.31-2.51-2.05-3.73c-2.95-4.88-6.62-9.36-10.67-13.46c-4.07-4.08-8.5-7.83-13.24-11.14
		c-9.45-6.6-20.06-11.76-31.27-14.07c-2.76-0.54-5.72-0.93-8.62-1.36c-2.91-0.41-5.81-0.81-8.72-1.15
		c-5.8-0.67-11.61-1.16-17.34-0.98c-5.73,0.16-11.38,1.12-16.72,3.1c-5.35,1.95-10.36,4.85-15.12,8.14
		c-2.37,1.66-4.68,3.43-6.95,5.26c-2.28,1.83-4.48,3.7-6.58,5.69c-4.2,3.97-7.97,8.4-11.21,13.19
		c-6.51,9.58-10.61,20.72-12.35,32.22c-1.73,11.52-1.42,23.35,0.24,34.96C572.23,385.69,575.26,397.1,578.26,408.5z"/>
</g>
<g>
	<path class="st0" d="M609.76,305c0,0,4-20-10-30s-40-10-48-30c0,0-38,69,31,88L609.76,305z"/>
	<path class="st10" d="M561.81,275.38c0,0-11.05,20.62,1.95,31.62s23.95,14.24,29.98,7.62c0,0,7.98-15.1-0.5-23.86
		s-15.1-9.19-18.29-9.98C571.76,280,561.81,275.38,561.81,275.38z"/>
	<g>
		<path d="M609.76,305c0.53-3.78,0.48-7.62-0.01-11.37c-0.55-3.74-1.67-7.42-3.55-10.66l-0.7-1.21l-0.84-1.12l-0.83-1.13l-0.96-1.01
			l-0.96-1.01c-0.34-0.32-0.72-0.59-1.08-0.89c-0.73-0.58-1.43-1.19-2.24-1.67c-3.14-2.04-6.63-3.54-10.17-4.88
			c-3.54-1.34-7.17-2.52-10.77-3.8c-3.6-1.3-7.19-2.71-10.64-4.48c-3.45-1.75-6.75-3.92-9.58-6.65c-1.4-1.38-2.68-2.89-3.79-4.52
			c-1.1-1.64-2-3.4-2.77-5.22l1.74,0.11c-2.09,3.99-3.81,8.27-5.34,12.56c-1.52,4.3-2.76,8.71-3.64,13.18
			c-1.76,8.92-2.04,18.23,0.25,27.01c1.13,4.38,2.89,8.61,5.36,12.41c2.49,3.79,5.62,7.14,9.11,10.08c1.83,1.35,3.59,2.83,5.58,3.96
			c0.98,0.58,1.91,1.27,2.94,1.77l3.06,1.57c1.01,0.56,2.07,0.99,3.13,1.42l3.18,1.32c2.16,0.8,4.35,1.49,6.53,2.25
			c-8.93-2.22-17.62-5.88-25.08-11.48c-3.63-2.91-6.92-6.29-9.58-10.15c-2.64-3.88-4.56-8.22-5.83-12.73
			c-2.5-9.07-2.21-18.67-0.5-27.79c0.87-4.58,2.1-9.08,3.62-13.47c1.52-4.41,3.31-8.67,5.52-12.84l0.95-1.8l0.79,1.91
			c0.71,1.7,1.54,3.35,2.55,4.89c1.03,1.52,2.21,2.95,3.52,4.25c2.64,2.59,5.77,4.68,9.1,6.41c3.33,1.74,6.85,3.14,10.4,4.47
			c3.55,1.35,7.16,2.61,10.72,4.05c3.55,1.44,7.09,3.04,10.3,5.23c3.19,2.23,5.95,5.14,7.74,8.6c1.82,3.43,2.83,7.22,3.25,11.03
			C610.62,297.39,610.48,301.25,609.76,305z"/>
	</g>
	<g>
		<path d="M593.26,315.5c1.36-2.72,2.32-5.61,2.8-8.54c0.48-2.93,0.48-5.93-0.23-8.74c-1.38-5.64-5.57-10.37-10.7-13.04
			c-5.21-2.68-11.34-3.6-17.05-5.96c-2.86-1.15-5.61-2.65-8.02-4.57c-2.42-1.91-4.53-4.17-6.29-6.65c2.07,2.23,4.28,4.3,6.8,5.93
			c2.49,1.67,5.21,2.93,8.02,3.92c2.82,0.99,5.74,1.69,8.69,2.49c2.94,0.78,5.93,1.66,8.75,3.1c1.4,0.71,2.76,1.56,4,2.56
			c1.24,1,2.33,2.14,3.36,3.35c2.02,2.44,3.47,5.4,4.1,8.51c0.6,3.12,0.42,6.33-0.36,9.33c-0.38,1.5-0.94,2.95-1.57,4.35
			C594.9,312.92,594.17,314.27,593.26,315.5z"/>
	</g>
</g>
<g>
	<g>
		<path d="M646.27,336.64c-2.54,0-5-0.9-6.95-2.53l-31.4-26.32c-3.24-2.72-4.35-7.18-2.77-11.1l12.7-31.37l0.05-0.11
			c5.26-10.11,27.93-22.51,50.54-27.65c4.82-1.1,9.58-1.65,14.16-1.65c11.11,0,21.02,3.1,30.29,9.49l31.05,20.45
			c5,3.3,6.78,9.84,4.14,15.21l-10.33,21c-1.54,3.14-4.52,5.39-7.96,6.03l-2.79,0.52l-4.16-4.16c-35.67,2.34-60.28,21.29-69.27,29.4
			C651.56,335.65,648.97,336.64,646.27,336.64z"/>
		<path class="st23" d="M669,240c-22,5-44,17-48.87,26.37l-12.65,31.26c-1.18,2.9-0.35,6.24,2.06,8.25l31.4,26.32
			c3.2,2.68,7.87,2.57,10.97-0.22c10.26-9.25,35.39-28.08,71.92-30.11l4.02,4.03l1.5-0.28c2.68-0.49,4.97-2.23,6.17-4.67l10.33-21
			c2.1-4.26,0.69-9.41-3.27-12.02l-31.09-20.47C705,243,691,235,669,240z"/>
		<path class="st21" d="M666,294c7-3,16.94-12.34,32-15c17-3,30.07-0.55,46,4l1.83-3.05c2.1-4.26,0.69-9.41-3.27-12.02l-31.09-20.47
			C705,243,691,235,669,240s-44,17-48.87,26.37L618,272c10.97,7.26,25.58,19.39,28,21C652,297,659,297,666,294z"/>
	</g>
	<path class="st24" d="M614.21,309.8c0,0,3.79-7.8,7.79-14.8s10-6,14-3s6,7,3,13s-9.99,17.27-9.99,17.27s-52.06,28.93-54.54,71.83
		c0,0-17.47-16.1-6.47-40.1C568,354,584.43,319.6,614.21,309.8z"/>
	<g>
		<path class="st25" d="M624.45,283.55l21.25,15.74c1.33,0.99,1.78,2.79,1.06,4.28l-7.87,16.46c-0.97,2.02-3.57,2.61-5.31,1.2
			l-20.5-16.55c-1.23-0.99-1.63-2.69-0.98-4.13l7.11-15.65C620.14,282.9,622.67,282.24,624.45,283.55z"/>
		<g>
			<path class="st20" d="M623.48,295.98c-0.51-0.35-1.1-0.43-1.64-0.28c0.22,0.06,0.44,0.14,0.64,0.28c1.01,0.69,1.33,2.17,0.71,3.3
				c-0.31,0.56-0.78,0.93-1.31,1.07c0.87,0.23,1.82-0.17,2.31-1.07C624.81,298.15,624.49,296.67,623.48,295.98z M632.75,293.49
				c-0.51-0.35-1.1-0.43-1.64-0.28c0.22,0.06,0.44,0.14,0.64,0.28c1.01,0.69,1.33,2.17,0.71,3.3c-0.31,0.56-0.78,0.93-1.31,1.07
				c0.87,0.23,1.82-0.17,2.31-1.07C634.08,295.66,633.76,294.18,632.75,293.49z M625.71,306.34c-0.51-0.35-1.1-0.43-1.64-0.28
				c0.22,0.06,0.44,0.14,0.64,0.28c1.01,0.69,1.33,2.17,0.71,3.3c-0.31,0.56-0.78,0.93-1.31,1.07c0.87,0.23,1.82-0.17,2.31-1.07
				C627.03,308.51,626.72,307.03,625.71,306.34z M634.98,303.85c-0.51-0.35-1.1-0.43-1.64-0.28c0.22,0.06,0.44,0.14,0.64,0.28
				c1.01,0.69,1.33,2.17,0.71,3.3c-0.31,0.56-0.78,0.93-1.31,1.07c0.87,0.23,1.82-0.17,2.31-1.07
				C636.3,306.02,635.99,304.55,634.98,303.85z M629.71,299.04c-0.65-0.44-1.38-0.57-2.08-0.45c0.37,0.07,0.74,0.22,1.08,0.45
				c1.44,0.99,1.9,3.1,1.01,4.71c-0.49,0.89-1.28,1.43-2.14,1.58c1.2,0.23,2.46-0.35,3.14-1.58
				C631.6,302.14,631.15,300.03,629.71,299.04z"/>
			<g>
				<ellipse class="st26" cx="628.11" cy="301.96" rx="3.06" ry="3.43"/>
				<g>
					<ellipse class="st26" cx="631.63" cy="295.54" rx="2.14" ry="2.4"/>
					<ellipse class="st26" cx="624.59" cy="308.39" rx="2.14" ry="2.4"/>
				</g>
				<g>
					<ellipse class="st26" cx="633.85" cy="305.9" rx="2.14" ry="2.4"/>
					<ellipse class="st26" cx="622.36" cy="298.02" rx="2.14" ry="2.4"/>
				</g>
			</g>
		</g>
	</g>
</g>
<path class="st10" d="M557.4,557.5c0,0-19.73,28.68-17.24,59.96c2.62,32.89,27.55,75.93,66.95,90.45
	c40.27,14.84,100.05,22.59,110.02,28.88c6.85,4.32,15.92,14.35,22.13,16.13c6.21,1.77,22.27,6.78,24.04-12.28
	c1.77-19.07,5.43-21.41,12.52-29.4c7.09-7.98,13.08-20.84,16.08-28.36c5.32-13.3-3.22-19.53-3.22-19.53s-26.27,13.19-37.8,31.37
	c-7.84,12.36-6.98,38.69-30.93,24.94c-11.41-6.55-84.12-24.29-110.85-45.67C589.16,658.03,558.29,611.15,557.4,557.5z"/>
<path d="M644.39,407.61c-0.17,0.31-4.55,8.08-4.04,17.48c0.09,1.74,1.52,3.1,3.25,3.1c0.35,0,0.7-0.06,1.04-0.17
	c3.11-1.04,8.96-3.39,14.6-7.8c-0.56,2.55-1.28,7.57,0.07,13.15c0.32,1.33,1.5,2.27,2.86,2.27c0.49,0,0.98-0.13,1.42-0.37
	c4.73-2.62,8.59-5.8,11.81-9.72l0.63-0.85c0,0-6.4-1.91-15.42-6.61C651.58,413.39,644.39,407.61,644.39,407.61z"/>
<g>
	<path class="st27" d="M644.97,408.4c0,0-4.12,7.42-3.62,16.63c0.08,1.5,1.55,2.52,2.97,2.04c3.47-1.16,9.77-3.75,15.61-8.69
		C659.94,418.37,649.96,413.16,644.97,408.4z"/>
	<path class="st27" d="M660.66,418.76c0,0-2.23,6.69-0.37,14.38c0.3,1.25,1.7,1.88,2.82,1.26c2.74-1.52,7.36-4.4,11.52-9.48
		C674.62,424.91,666.81,422.14,660.66,418.76z"/>
</g>
<g class="st1">
	<path class="st5" d="M646.76,426.07c-1.42,0.48-2.89-0.54-2.97-2.04c-0.33-6.17,1.4-11.52,2.58-14.39c-0.5-0.42-0.97-0.83-1.4-1.24
		c0,0-4.12,7.42-3.62,16.63c0.08,1.5,1.55,2.52,2.97,2.04c1.12-0.38,2.54-0.9,4.15-1.61C647.85,425.7,647.27,425.9,646.76,426.07z"
		/>
	<path class="st5" d="M662.72,432.14c-1.24-5.14-0.66-9.82-0.13-12.37c-0.65-0.33-1.3-0.67-1.93-1.01c0,0-2.23,6.69-0.37,14.38
		c0.3,1.25,1.7,1.88,2.82,1.26c0.4-0.22,0.86-0.49,1.34-0.77C663.65,433.55,662.93,433,662.72,432.14z"/>
</g>
<path class="st12" d="M744.75,345.88c0,0,26.96,24.4,33.59,31.26c6.98,7.22,17.99,19.07,5.47,31.26
	c-10.68,10.4-17.13,12.64-28.55,16.36c0,0,24.45-19.13,25.67-28.67C782.07,387.18,764.85,366.17,744.75,345.88z"/>
<path class="st28" d="M649.82,249.03c5.8-2.99,25.3-9.34,36.04-8.06c12.85,1.53,19.2,6.27,28.47,11.84s-2.89,9.53-18.44,3.18
	c-9.04-3.69-15-3.99-22.67-1.75C661.61,257.63,636.42,255.93,649.82,249.03z"/>
<path class="st29" d="M629.88,273.73c3.38,2.62,11.32,10.97,20.41,14.46c5.31,2.04,13.62,1.8,18.84-1.6
	c5.71-3.72,15.08-9.71,23.5-10.86c10.11-1.38,20.67-1.81,25.33-1.67c5.74,0.17,10.2-0.79-1.66-2.1
	c-11.05-1.21-24.56,0.41-33.24,3.43c-7.52,2.62-15.48,10.9-25.12,11.57c-7.11,0.5-18.67-9.53-25.1-14.67
	C627.02,267.63,622.24,267.8,629.88,273.73z"/>
<path class="st10" d="M625.13,426.7c0,0,16.66,20.3,49.5,24.05c21.77,2.48,40.59-0.12,52.38-9.82c0,0-25.61,8.04-51.25,3.61
	S625.13,426.7,625.13,426.7z"/>
<g>
	<path d="M563.4,656.42c0,0,3.21-16.17,7.12-25.04c0.54-1.22,1.95-1.8,3.22-1.35c4.07,1.46,12.97,4.91,19.69,9.4
		c0,0,2.61-15.15,6.7-23.41c0.75-1.52,2.69-2.06,4.15-1.15c4.4,2.74,13.29,8.69,17.43,14.48c0,0,7.38-6.56,14.67-9.44
		c1.78-0.7,3.8,0.08,4.56,1.8c1.46,3.33,3.7,9.04,4.32,14.01c0,0,5.54-0.93,14.58-1.72c1.9-0.17,3.68,0.88,4.42,2.6
		c1.78,4.12,4.66,12.01,4.18,19.01c0,0,6.25-0.68,13.84,0.04c1.83,0.17,3.33,1.5,3.66,3.27c0.87,4.66,2.32,13.73,1.27,18.04
		c0,0,8.78-0.4,16.7,0.82c1.75,0.27,3.11,1.63,3.31,3.36c0.46,4,0.1,13.04-1.68,19.07l-30.11-25.35l-35.34-34.93l-21.58-4.26
		l-23.64,10.74L563.4,656.42z"/>
	<path class="st9" d="M564.48,658.4c0,0,3.13-16.17,6.94-25.03c0.52-1.22,1.91-1.8,3.15-1.35c3.98,1.46,12.69,4.91,19.26,9.41
		c0,0,2.55-15.15,6.54-23.41c0.74-1.52,2.63-2.06,4.06-1.15c4.3,2.74,13,8.7,17.05,14.49c0,0,7.21-6.56,14.34-9.43
		c1.74-0.7,3.72,0.08,4.46,1.8c1.43,3.33,3.62,9.04,4.23,14.02c0,0,5.41-0.92,14.25-1.71c1.85-0.17,3.6,0.89,4.32,2.6
		c1.74,4.12,4.56,12.01,4.1,19.01c0,0,6.11-0.68,13.54,0.04c1.79,0.17,3.25,1.5,3.58,3.27c0.86,4.66,2.27,13.73,1.25,18.04
		c0,0,8.58-0.39,16.33,0.83c1.71,0.27,3.04,1.63,3.24,3.36c0.45,4,0.94,11.51-0.8,17.54l-30.28-23.84l-34.57-34.95l-21.1-4.27
		l-23.11,10.73L564.48,658.4z"/>
	<path class="st12" d="M604.43,616.87c-1.2-0.76-2.72-0.5-3.62,0.51c4.41,2.83,12.74,8.62,16.67,14.25c0,0,0.97-0.88,2.53-2.13
		C615.61,624.33,608.27,619.31,604.43,616.87z M635.82,621.92c-0.34,0.14-0.69,0.29-1.03,0.45c0.64,0.35,1.18,0.9,1.5,1.63
		c1.43,3.33,3.62,9.04,4.23,14.02c0,0,1.41-0.24,3.94-0.58c-0.66-4.9-2.78-10.45-4.18-13.7
		C639.53,622.01,637.56,621.22,635.82,621.92z M705.11,683.18c-0.2-1.72-1.52-3.09-3.24-3.36c-7.75-1.22-16.33-0.83-16.33-0.83
		c1.02-4.31-0.4-13.38-1.25-18.04c-0.32-1.77-1.79-3.1-3.58-3.27c-7.43-0.73-13.54-0.04-13.54-0.04c0.47-7-2.35-14.89-4.1-19.01
		c-0.72-1.71-2.47-2.76-4.32-2.6c-1.08,0.1-2.11,0.2-3.09,0.29c1.5,0.18,2.82,1.14,3.42,2.57c1.74,4.12,4.56,12.01,4.1,19.01
		c0,0,6.11-0.68,13.54,0.04c1.79,0.17,3.25,1.5,3.58,3.27c0.86,4.66,2.27,13.73,1.25,18.04c0,0,8.58-0.39,16.33,0.83
		c1.71,0.27,3.04,1.63,3.24,3.36c0.38,3.38,0.78,9.26-0.15,14.64l3.34,2.63C706.05,694.69,705.56,687.18,705.11,683.18z
		 M590.29,639.21c-5.88-3.4-12.42-5.99-15.72-7.2c-1.24-0.46-2.63,0.13-3.15,1.35c-0.11,0.26-0.22,0.52-0.33,0.79
		c5.1,1.54,13.43,3.91,18.75,7.54C589.84,641.69,590,640.75,590.29,639.21z"/>
</g>
<path d="M769.16,775.77c-2.45-0.06-4.92-0.2-7.33-0.43c-24.28-2.3-46.47-17.52-67.93-32.23c-22.98-15.76-46.58-30.69-70.66-31.26
	c-16.13-0.38-32.68,8.99-48.57,18.01c-9.9,5.62-17.26,10.93-26.08,13.59c-7.76,2.34-23.4,6.21-40.92,5.8
	c-24.77-0.58-56.56-10.1-67.39-52.11c-1.64-6.35,30.53-40.88,73.81-40.02c6.56,0.13,13.48,0.97,18.4,2.1
	c10.23,2.34,24.64-7.96,37.04-16.19c14.52-9.64,29.54-19.6,46.96-19.19c2.64,0.06,5.3,0.37,7.9,0.92
	c29,6.12,48.29,29.89,66.83,54.96c15.63,21.13,33.79,42.98,57.79,54.61c15.48,7.5,29.29,11.29,42.2,11.6
	c18.66,0.44,36.57-6.26,59.21-22.29l-21.43-10.37l7.37-2.25c16.55-5.05,68.61-23.54,77.6-31.19c0,0-28.07,50.75-32.1,69.23
	l-1.42,6.54l-12.08-18.42C858.15,745.64,817.14,776.9,769.16,775.77z"/>
<path class="st0" d="M624.49,627.7c53.05,11.08,68.25,83.73,121.59,109.3c44.06,21.12,73.08,12.67,109.48-13.92l-19.24-9.21
	c0,0,60.68-18.3,72.21-28.01c0,0-25.5,43.31-29.71,62.5l-10.3-15.54c0,0-50.51,44.9-108.04,39.5
	c-49.08-4.61-89.49-62.34-138.41-63.49c-27.46-0.65-55.45,24.87-78.2,31.65s-89.49,19.16-106.02-44.26
	c-7.72-29.6,59.75-42.5,90.01-35.21C558.11,668.29,586.55,619.78,624.49,627.7z"/>
<path class="st10" d="M433.98,677.52c0,0,13.72,30.16,40.57,36.03c27.93,6.11,49.88,6.77,80.47-6.53
	c30.59-13.3,67.09-19.29,87.08-11.31c19.99,7.98,67.75,49.29,83.65,54.54s66.76,30.05,125.92-4.93c0,0-35.5,30.48-84.5,28.87
	c-53.85-1.77-100.28-64.07-139.89-63.63c-35.15,0.39-38.08,11.07-58.64,21.06c-20.56,9.99-60.01,27.62-102.01,5.19
	C431.99,718.33,433.98,677.52,433.98,677.52z"/>
<path class="st10" d="M547.77,656.54l-4.45-12.5c0,0-6.34-0.08-16.23,1.9c-9.28,1.86-17.29,5.21-25.27,12.19c0,0,15.97-1.66,22.28,0
	C530.41,659.8,539.83,662.86,547.77,656.54z"/>
<path class="st12" d="M683.06,683.87c-1.4,0.75-12.87-12.78-22.03-22.51c-8.92-9.79-23.55-19.75-41.9-21.06
	c-18.31-1.8-29.95,3.69-42.25,10.3c-18.64,10.03-35.63,15.16-36.89,14.18c-0.74-0.21,15.41-6.29,30.45-16.07
	c12.21-7.94,26.18-21.99,47.2-19.82c21.09,1.41,39.54,16.05,48.06,27.92C674.57,668.77,683.83,683.79,683.06,683.87z"/>
<path class="st12" d="M856.3,724.98c0,0-42.57,34.12-80.81,23.71C775.49,748.69,816.73,771.2,856.3,724.98z"/>
<g>
	<g>
		<path d="M716.16,720.76c-0.42-0.43-10.28-10.7-10.6-18.84v0c-0.04-0.94,0.78-1.68,1.71-1.54l0,0c0.3,0.04,7.47,1.08,12.51,2.81
			c1.98,0.68,3.18,2.76,2.78,4.83c-0.86,4.5-2.28,10.34-4.16,12.65l0,0C717.83,721.36,716.79,721.4,716.16,720.76L716.16,720.76z"/>
		<path d="M736.03,735.86c-2.45-1.17-14.7-7.23-15.63-12.22l-0.23-1.25l1.2-0.43c0.24-0.09,5.83-2.1,10.27-2.83
			c0.21-0.03,0.42-0.05,0.63-0.05c1.74,0,3.3,1.18,3.78,2.87c1.24,4.31,2.61,10.04,2.1,12.83l0,0
			C737.97,735.75,736.92,736.29,736.03,735.86L736.03,735.86z"/>
		<path d="M755.09,745.22c-2.14-0.59-12.91-3.72-14.77-7.81l-0.54-1.18l1.09-0.7c0.16-0.1,4.01-2.57,8.5-3.74
			c0.82-0.21,1.69-0.17,2.5,0.11c1.12,0.39,1.99,1.3,2.47,2.38c2.05,4.61,2.93,7.89,2.62,9.74l-0.04,0.22
			c-0.13,0.76-0.88,1.24-1.62,1.04L755.09,745.22z"/>
		<path d="M773.4,749.65c-2.5,0.27-10.87,0.78-13.65-4.11l-0.57-1l0.81-0.81c0.12-0.12,3-2.97,5.78-4.87
			c0.52-0.35,1.12-0.57,1.74-0.64c1.41-0.15,2.79,0.48,3.6,1.65c3.9,5.67,3.98,7.55,4.01,8.17l0,0c0.04,0.77-0.52,1.44-1.28,1.55
			l0,0C773.83,749.59,773.67,749.62,773.4,749.65z"/>
		<path d="M785.93,752.05c-4.72,0.16-6.66-1.89-7.46-3.63c-0.33-0.73-0.75-1.63,4.87-6.14c0.81-0.65,1.81-0.97,2.87-0.9
			c1.05,0.07,2.02,0.59,2.76,1.34c1.57,1.61,3.55,3.95,4.31,6.17l0,0c0.27,0.78-0.14,1.62-0.91,1.9l0,0
			C792.24,750.85,789.16,751.94,785.93,752.05z"/>
		<path d="M805.41,750.61c-1.59,0.06-3.14-0.23-4.6-0.88l-1.02-0.45l0.14-1.1c0.02-0.13,0.41-3.18,2.27-5.71
			c0.68-0.93,1.74-1.49,2.91-1.53c0.61-0.03,1.23,0.1,1.79,0.35c1.37,0.63,3.42,2.13,4.94,3.85c0.94,1.06,0.66,2.73-0.56,3.45
			C809.76,749.48,807.57,750.52,805.41,750.61z"/>
	</g>
	<g>
		<path class="st9" d="M707.06,701.85c0,0,7.28,1.04,12.24,2.75c1.29,0.44,2.05,1.78,1.79,3.12c-0.49,2.57-1.41,6.81-2.59,9.69
			c-0.49,1.19-2.08,1.43-2.93,0.45C712.74,714.57,707.28,707.52,707.06,701.85z"/>
		<path class="st9" d="M721.87,723.37c0,0,5.65-2.04,10-2.76c1.22-0.2,2.39,0.56,2.73,1.75c0.63,2.2,1.59,5.82,1.98,8.74
			c0.21,1.55-1.42,2.67-2.8,1.93C729.65,730.82,722.46,726.55,721.87,723.37z"/>
		<path class="st9" d="M742.47,736.31c1.33-0.76,4.17-2.27,7.29-3.08c1.28-0.33,2.61,0.32,3.15,1.52c1.02,2.28,2.54,6.02,2.61,8.26
			c0.01,0.38-0.36,0.66-0.73,0.55c-2.36-0.7-10.09-3.15-12.54-5.94C741.89,737.22,742,736.59,742.47,736.31z"/>
		<path class="st9" d="M761.63,744.23c0.97-0.92,3.03-2.8,4.99-4.14c1.06-0.72,2.51-0.45,3.24,0.61c1.24,1.81,3.04,4.62,3.59,6.51
			c0.14,0.46-0.18,0.94-0.66,0.98c-2.27,0.2-8.61,0.45-11.24-2.69C761.23,745.13,761.27,744.57,761.63,744.23z"/>
		<path class="st9" d="M779.83,747.8c-0.12-0.26,2.24-2.57,4.45-4.34c1.04-0.84,2.56-0.75,3.5,0.2c1.21,1.23,2.79,3.02,3.67,4.77
			c0.26,0.51-0.02,1.12-0.57,1.28C788.35,750.43,781.7,751.89,779.83,747.8z"/>
		<path class="st9" d="M801.59,747.48c0.23-1,0.75-2.68,1.83-4.14c0.65-0.89,1.86-1.16,2.86-0.7c1.26,0.58,3,1.56,4.23,3.01
			c0.55,0.65,0.37,1.63-0.37,2.04c-1.59,0.89-4.57,2.07-7.86,0.99C801.76,748.51,801.47,748,801.59,747.48z"/>
	</g>
	<path class="st12" d="M734.61,722.36c-0.34-1.19-1.51-1.95-2.73-1.75c-4.35,0.71-10,2.76-10,2.76c0.02,0.1,0.06,0.2,0.09,0.29
		c2.04-0.66,5.22-1.61,7.91-2.05c1.22-0.2,2.39,0.56,2.73,1.75c0.63,2.2,1.59,5.82,1.98,8.74c0.06,0.42-0.03,0.8-0.2,1.13
		c1.21,0.2,2.38-0.8,2.2-2.13C736.19,728.18,735.24,724.56,734.61,722.36z M810.5,745.65c-1.23-1.45-2.97-2.44-4.23-3.01
		c-1-0.46-2.2-0.18-2.86,0.7c-0.02,0.03-0.04,0.06-0.06,0.09c0.31,0.01,0.62,0.08,0.92,0.21c1.26,0.58,3,1.56,4.23,3.01
		c0.47,0.55,0.4,1.34-0.08,1.82c0.66-0.24,1.25-0.52,1.71-0.78C810.87,747.28,811.05,746.3,810.5,745.65z M719.3,704.6
		c-4.96-1.7-12.24-2.75-12.24-2.75c0.02,0.5,0.09,1.01,0.19,1.53c2.56,0.47,6.19,1.23,9.05,2.21c1.29,0.44,2.05,1.78,1.79,3.12
		c-0.47,2.44-1.32,6.37-2.42,9.23c0.86,0.86,2.35,0.61,2.83-0.54c1.18-2.88,2.1-7.12,2.59-9.69
		C721.35,706.38,720.59,705.04,719.3,704.6z M749.77,733.23c-2.63,0.68-5.05,1.85-6.54,2.66c1.31-0.61,2.88-1.23,4.54-1.66
		c1.28-0.33,2.61,0.32,3.15,1.52c0.9,2.01,2.18,5.14,2.52,7.39c0.54,0.17,1.01,0.32,1.36,0.42c0.37,0.11,0.74-0.17,0.73-0.55
		c-0.08-2.24-1.59-5.98-2.61-8.26C752.38,733.55,751.05,732.9,749.77,733.23z M769.86,740.71c-0.73-1.06-2.18-1.34-3.24-0.61
		c-0.28,0.19-0.57,0.4-0.86,0.61c0.8-0.06,1.61,0.29,2.1,1c1.24,1.81,3.04,4.62,3.59,6.51c0.01,0.02,0,0.04,0,0.06
		c0.52-0.02,0.98-0.05,1.33-0.08c0.48-0.04,0.8-0.52,0.66-0.98C772.9,745.33,771.1,742.52,769.86,740.71z M787.77,743.66
		c-0.94-0.95-2.45-1.04-3.5-0.2c-0.18,0.14-0.36,0.29-0.54,0.44c0.73-0.05,1.48,0.2,2.03,0.76c1.21,1.23,2.79,3.02,3.67,4.77
		c0.1,0.21,0.1,0.43,0.05,0.63c0.53-0.12,1.01-0.24,1.39-0.35c0.55-0.16,0.82-0.77,0.57-1.28
		C790.56,746.67,788.98,744.88,787.77,743.66z"/>
</g>
<path class="st12" d="M428.43,391.77c0,0,17.63-46.37,38.8-48.72c18.95-2.1,45.78,30.3,76.71,76.43c0,0-50.99-68.5-77.15-68.5
	C448.1,350.98,428.43,391.77,428.43,391.77z"/>
</svg>
