<svg height="50" viewBox="0 0 204 50" width="204" xmlns="http://www.w3.org/2000/svg"><g fill="none" fill-rule="evenodd"><path d="m56.2837838.06756757c-8.5810811 0-21.9594595 9.66216216-30.7432433 16.89189193 5.2702703 3.7837837 8.5810811 8.1081081 8.5810811 8.1081081s-3.3108108 4.1891892-8.5135135 7.9054054c8.7837838 7.2972973 21.9594595 16.9594594 30.5405405 16.9594594 13.7837838.0675676 25-11.081081 25.0675676-24.8648648s-11.1486486-24.93243247-24.9324324-25.00000003zm12.4324324 24.72972973c0 7.2297297-5.8783784 13.0405405-13.1081081 12.972973-7.2297297 0-21.554054-12.7027027-21.554054-12.7027027s14.4594594-13.3783784 21.6216216-13.3783784c7.2972973 0 13.1081081 5.8783784 13.0405405 13.1081081z" fill="#019189" fill-rule="nonzero"/><g fill="#f79822"><circle cx="19.797297" cy="24.72973" r="5.675676"/><circle cx="9.324324" cy="24.72973" r="3.378378"/><circle cx="2.432432" cy="24.72973" r="2.027027"/></g><path d="m55.4054054 7.2972973c-6.1486486 0-15.6081081 6.8243243-21.8918919 12.027027 3.7162162 2.7027027 6.1486487 5.7432433 6.1486487 5.7432433s-2.3648649 2.9729729-6.0135136 5.6756756c6.2837838 5.2027027 15.6081082 12.0270271 21.6891892 12.0945946 9.7972973 0 17.7702703-7.9054054 17.8378379-17.7027027-.0675676-9.7972973-7.972973-17.77027024-17.7702703-17.8378378zm8.8513514 17.6351351c0 5.1351352-4.1891892 9.2567568-9.3243244 9.2567568-5.1351351 0-15.3378378-9.0540541-15.3378378-9.0540541s10.2702703-9.527027 15.4054054-9.527027 9.2567568 4.1891892 9.2567568 9.3243243z" fill="#215d5f" fill-rule="nonzero"/><g fill="#215d5f" transform="translate(89.189189 19.594595)"><g fill-rule="nonzero"><path d="m.13513513 10v-9.72972973h3.51351352c.81081081 0 1.48648649.13513514 2.09459459.40540541.60810811.27027027 1.08108108.6081081 1.48648649 1.01351351.40540541.4054054.67567568.94594595.87837838 1.55405405.2027027.60810811.27027027 1.21621622.27027027 1.8918919 0 .74324324-.13513514 1.41891891-.33783784 2.02702702s-.54054054 1.08108108-.94594595 1.55405406c-.4054054.4054054-.94594594.74324324-1.48648648 1.01351351-.60810811.2027027-1.21621622.33783787-1.95945946.33783787h-3.51351352zm6.48648649-4.86486486c0-.47297298-.06756757-.87837838-.2027027-1.28378379-.13513514-.4054054-.33783784-.74324324-.54054054-1.01351351-.27027027-.27027027-.54054054-.47297298-.87837838-.67567568-.33783784-.13513513-.74324324-.2027027-1.21621622-.2027027h-1.75675675v6.41891892h1.62162162c.47297297 0 .87837838-.06756757 1.21621621-.27027027.33783784-.13513514.67567568-.40540541.87837838-.67567568.27027027-.27027027.40540541-.60810811.54054054-1.01351351.27027027-.40540541.33783784-.87837838.33783784-1.28378378z"/><path d="m11.6891892 10.1351351c-.3378378 0-.6756757-.0675675-.945946-.20270267-.2702702-.13513513-.5405405-.27027027-.81081077-.47297297-.2027027-.2027027-.4054054-.47297297-.54054054-.74324324-.13513513-.27027027-.2027027-.60810811-.2027027-.87837838 0-.33783784.06756757-.67567568.2027027-.94594595.13513514-.27027027.33783784-.54054054.60810811-.74324324.2702703-.2027027.6081081-.33783784.9459459-.47297297.4054055-.13513514.8108109-.20270271 1.2162163-.20270271.3378378 0 .6081081 0 .9459459.06756757s.6081081.13513514.8108108.2027027v-.33783783c0-.47297298-.1351351-.81081082-.4054054-1.08108109s-.6756757-.4054054-1.2162162-.4054054c-.4054054 0-.7432432.06756757-1.1486487.2027027-.3378378.13513514-.7432432.33783784-1.1486486.60810811l-.54054054-1.14864865c.94594594-.60810811 1.89189194-.94594594 2.97297294-.94594594 1.0135135 0 1.8243244.27027027 2.4324325.74324324.5405405.54054054.8783783 1.21621621.8783783 2.22972973v2.22972973c0 .2027027.0675676.33783784.1351352.4054054.0675675.06756757.2027027.13513514.4054054.13513514v1.55405405c-.2027027.06756757-.3378379.06756757-.472973.06756757s-.2702703 0-.4054054 0c-.3378378 0-.6081081-.06756757-.8108108-.27027027-.2027027-.13513514-.2702703-.33783784-.3378378-.60810811l-.0675676-.4054054c-.3378378.4054054-.6756757.74324324-1.1486487.94594594-.3378378.33783784-.8108108.47297294-1.3513513.47297294zm.5405405-1.35135132c.3378379 0 .6081081-.06756756.8783784-.13513513.2702703-.13513514.472973-.27027027.6756757-.40540541.2027027-.13513513.2702703-.33783783.2702703-.54054054v-.81081081c-.2027027-.06756757-.472973-.13513513-.7432433-.2027027s-.472973-.06756757-.7432432-.06756757c-.472973 0-.8783784.13513514-1.1486487.33783784s-.472973.47297297-.472973.81081081.1351352.54054054.3378379.74324324c.2702703.13513514.5405405.27027027.9459459.27027027z"/><path d="m20.9459459 10.1351351c-.6081081 0-1.081081-.0675675-1.554054-.27027024-.472973-.2027027-.8783784-.47297297-1.2162162-.81081081-.3378379-.33783783-.6081081-.74324324-.7432433-1.14864864-.2027027-.47297298-.2702702-.94594595-.2702702-1.41891892 0-.54054054.0675675-1.01351352.2702702-1.41891892.2027027-.47297298.4054054-.87837838.7432433-1.21621622.3378378-.33783784.7432432-.60810811 1.2162162-.81081081s1.0135135-.27027027 1.554054-.27027027c.6081082 0 1.0810811.06756757 1.5540541.27027027s.8783784.47297297 1.1486486.81081081c.3378379.33783784.5405406.74324324.7432433 1.14864865.2027027.47297297.2702703.94594595.2702703 1.41891892v.33783784c0 .13513513 0 .2027027-.0675676.27027027h-5.5405405c0 .27027027.0675675.54054054.2027027.74324324.1351351.2027027.2702702.40540541.4054054.54054054.2027027.13513514.3378378.27027027.6081081.33783784.2027027.06756757.4729729.13513513.6756756.13513513.3378379 0 .7432433-.06756756 1.0135136-.27027027.3378378-.2027027.5405405-.4054054.6756756-.67567567l1.5540541.4054054c-.2702703.54054054-.6756757 1.01351352-1.2837838 1.35135135-.4054054.33783784-1.1486486.54054051-1.9594595.54054051zm1.8918919-4.32432429c-.0675675-.54054054-.2702702-.94594595-.6081081-1.28378378-.3378378-.33783784-.8108108-.47297298-1.2837838-.47297298-.2702702 0-.4729729.06756757-.6756756.13513514s-.4054054.2027027-.5405406.33783784c-.1351351.13513513-.2702702.33783783-.4054054.54054054-.1351351.2027027-.1351351.47297297-.2027027.74324324z"/></g><path d="m37.027027 10h-1.8243243v-4.05405405c0-.60810811-.0675676-1.01351352-.2702703-1.28378379s-.4729729-.4054054-.8108108-.4054054c-.3378378 0-.6756757.13513513-1.0135135.4054054s-.5405405.67567568-.6756757 1.08108108v4.18918919h-1.8243243v-4.05405405c0-.60810811-.0675676-1.01351352-.2702703-1.28378379s-.4729729-.4054054-.8108108-.4054054c-.3378378 0-.6756756.13513513-1.0135135.4054054-.3378378.27027027-.5405405.60810811-.6756757 1.08108109v4.18918918h-1.8243243v-7.09459459h1.6891892v1.35135135c.2702703-.47297297.6081081-.81081081 1.0810811-1.08108108s1.0135135-.4054054 1.554054-.4054054c.6081081 0 1.0810811.13513513 1.418919.4054054.3378378.27027027.5405405.67567568.6081081 1.08108108.2702702-.47297297.6756756-.87837838 1.081081-1.14864865.472973-.27027027.945946-.4054054 1.5540541-.4054054.4054054 0 .8108108.06756757 1.0810811.27027027.2702703.13513513.472973.4054054.6756757.67567567.1351351.27027027.2702702.54054054.3378378.87837838s.0675676.67567568.0675676 1.01351352v4.59459459z"/><path d="m41.8918919 10.1351351c-.6081081 0-1.0810811-.0675675-1.5540541-.27027024-.4729729-.2027027-.8783783-.47297297-1.2162162-.81081081-.3378378-.33783783-.5405405-.74324324-.7432432-1.21621621-.2027027-.47297298-.2702703-.94594595-.2702703-1.41891892s.0675676-.94594595.2702703-1.41891892.4054054-.81081081.7432432-1.21621622c.3378379-.33783783.7432433-.6081081 1.2162162-.81081081.472973-.2027027 1.0135136-.27027027 1.5540541-.27027027.6081081 0 1.0810811.06756757 1.554054.27027027.472973.20270271.8783784.47297298 1.1486487.81081081.3378378.33783784.5405405.74324325.7432432 1.21621622s.2702703.94594595.2702703 1.41891892-.0675676.94594594-.2702703 1.41891892c-.2027027.47297297-.4054054.81081081-.7432432 1.21621621-.3378378.33783784-.7432432.60810811-1.1486487.81081081-.4054054.13513514-.9459459.27027024-1.554054.27027024zm-1.8243243-3.71621618c0 .33783784.0675675.60810811.1351351.87837838s.2027027.47297297.4054054.67567567c.2027027.20270271.3378378.33783784.6081081.47297298.2027027.13513513.472973.13513513.7432433.13513513.2702702 0 .5405405-.06756757.7432432-.13513513.2027027-.13513514.4054054-.27027027.6081081-.47297298.2027027-.2027027.2702703-.4054054.4054054-.67567567.0675676-.27027027.1351352-.54054054.1351352-.87837838s-.0675676-.60810811-.1351352-.87837838-.2027027-.47297297-.4054054-.67567568c-.2027027-.2027027-.3378378-.33783783-.6081081-.47297297-.2027027-.13513513-.472973-.13513513-.7432432-.13513513-.2702703 0-.5405406.06756756-.7432433.13513513-.2027027.13513514-.4054054.27027027-.6081081.47297297-.2027027.20270271-.2702703.40540541-.4054054.67567568s-.1351351.54054054-.1351351.87837838z" fill-rule="nonzero"/><path d="m53.5810811 10h-1.8243243v-4.05405405c0-.60810811-.0675676-1.01351352-.2702703-1.28378379s-.472973-.4054054-.8108108-.4054054c-.2027027 0-.3378379.06756756-.5405406.13513513s-.4054054.2027027-.5405405.33783784c-.2027027.13513513-.3378378.27027027-.472973.47297297-.1351351.20270271-.2702702.40540541-.2702702.60810811v4.18918919h-1.8243244v-7.22972973h1.6891892v1.35135135c.2702703-.47297297.6756757-.81081081 1.1486487-1.08108108.4729729-.27027027 1.081081-.4054054 1.6891892-.4054054.4729729 0 .8108108.06756756 1.081081.27027027.2702703.13513513.472973.4054054.6756757.67567567.1351351.27027027.2702703.54054054.3378378.87837838.0675676.33783784.0675676.67567568.0675676 1.01351351v4.52702703z"/></g><g fill="#f79822" transform="translate(145.945946 19.594595)"><path d="m6.75675676 2.09459459c-.27027027-.33783783-.67567568-.54054054-1.08108108-.74324324-.47297298-.2027027-1.01351352-.27027027-1.55405406-.27027027-.87837838 0-1.48648648.13513514-1.89189189.47297297-.40540541.33783784-.60810811.74324325-.60810811 1.35135136 0 .27027027.06756757.54054054.13513514.74324324.13513513.2027027.27027027.33783784.47297297.47297297.2027027.13513514.54054054.27027027.87837838.33783784s.74324324.2027027 1.21621621.27027027c.54054054.13513513 1.01351352.2027027 1.41891892.33783784.40540541.13513513.74324325.27027027 1.08108108.54054054.27027027.2027027.54054054.47297297.67567568.74324324s.2027027.67567568.2027027 1.08108108c0 .47297298-.06756756.81081081-.27027027 1.14864865-.2027027.33783784-.4054054.60810811-.74324324.81081081s-.67567568.40540541-1.08108108.47297297c-.40540541.13513514-.87837838.13513514-1.41891892.13513514-1.55405405 0-2.83783784-.47297297-3.91891892-1.41891892l.47297297-.81081081c.33783784.40540541.81081081.67567568 1.41891892.94594595s1.28378379.4054054 2.02702703.4054054 1.35135135-.13513513 1.82432432-.4054054c.40540541-.27027027.67567568-.67567568.67567568-1.28378379 0-.27027027-.06756757-.54054054-.2027027-.74324324-.13513514-.2027027-.33783784-.40540541-.54054054-.54054054-.27027027-.13513514-.54054054-.27027027-.94594595-.40540541-.33783784-.13513513-.81081081-.2027027-1.28378378-.33783783-.54054054-.13513514-.94594595-.27027027-1.35135136-.33783784-.4054054-.13513514-.67567567-.27027027-.94594594-.47297298-.27027027-.2027027-.47297297-.4054054-.60810811-.67567567-.13513513-.27027027-.2027027-.60810811-.2027027-1.01351351 0-.47297298.06756757-.87837838.27027027-1.21621622s.4054054-.67567568.74324324-.87837838.67567568-.4054054 1.08108108-.54054054c.40540541-.13513514.87837838-.2027027 1.41891892-.2027027.60810811 0 1.21621622.06756756 1.68918919.27027027.54054054.2027027.94594595.47297297 1.35135135.81081081z"/><path d="m12.2297297 10.1351351c-.5405405 0-1.0135135-.0675675-1.4189189-.27027024-.4054054-.2027027-.8108108-.47297297-1.14864864-.81081081-.33783784-.33783783-.54054054-.74324324-.74324324-1.14864864-.2027027-.47297298-.27027027-.94594595-.27027027-1.41891892 0-.47297298.06756757-.94594595.27027027-1.41891892.2027027-.47297298.4054054-.81081081.74324324-1.14864865s.67567564-.60810811 1.14864864-.81081081c.4054054-.2027027.8783784-.27027027 1.4189189-.27027027.5405406 0 1.0135135.06756757 1.4189189.27027027.4054055.2027027.8108109.47297297 1.1486487.81081081s.5405405.74324324.7432432 1.14864865c.2027027.47297297.2702703.94594594.2702703 1.41891892 0 .47297297-.0675676.94594594-.2702703 1.41891892-.2027027.47297297-.4054054.81081081-.7432432 1.14864864-.3378378.33783784-.6756757.60810811-1.1486487.81081081-.4054054.13513514-.8783783.27027024-1.4189189.27027024zm-2.56756754-3.71621618c0 .4054054.06756757.74324324.2027027 1.14864865.13513514.33783784.33783784.67567567.54054054.87837838.2027027.27027027.5405405.47297297.8108108.6081081.3378379.13513514.6756757.20270271 1.0135135.20270271.3378379 0 .6756757-.06756757 1.0135135-.20270271.3378379-.13513513.6081082-.33783783.8108109-.6081081.2702702-.27027027.4054054-.54054054.5405405-.87837838s.2027027-.74324325.2027027-1.14864865c0-.40540541-.0675676-.74324324-.2027027-1.14864865-.1351351-.33783784-.3378378-.67567568-.5405405-.94594595-.2702703-.27027027-.5405406-.47297297-.8108109-.6081081-.3378378-.13513514-.6756756-.20270271-1.0135135-.20270271-.3378378 0-.6756756.06756757-1.0135135.20270271-.3378378.13513513-.6081081.33783783-.8108108.6081081s-.4054054.54054054-.54054054.94594595c-.13513513.40540541-.2027027.74324324-.2027027 1.14864865z" fill-rule="nonzero"/><path d="m17.3648649 0h.9459459v8.37837838c0 .27027027.0675676.47297297.2027027.60810811.1351351.13513513.3378379.2027027.6081081.2027027.0675676 0 .2027027 0 .3378379-.06756757.1351351 0 .2702702-.06756757.4054054-.13513513l.1351351.74324324c-.2027027.06756757-.4054054.13513513-.6081081.2027027-.2702703.06756757-.472973.06756757-.6756757.06756757-.4054054 0-.7432432-.13513514-1.0135135-.33783784-.2702703-.27027027-.3378378-.60810811-.3378378-1.01351351z"/><path d="m23.1756757 10.1351351c-.7432433 0-1.2837838-.27027024-1.6891892-.74324321-.4054054-.54054054-.6081081-1.28378378-.6081081-2.2972973v-4.18918918h.9459459v4.05405405c0 1.62162162.5405406 2.43243243 1.6891892 2.43243243.2702703 0 .5405406-.06756757.8108108-.13513513.2702703-.06756757.5405406-.20270271.7432433-.40540541s.4054054-.4054054.6081081-.60810811c.2027027-.27027027.3378378-.54054054.4054054-.81081081v-4.52702702h.9459459v5.87837837c0 .27027027.1351352.40540541.3378379.40540541v.81081081c-.2027027 0-.3378379.0675676-.4054054.0675676-.2027027 0-.4054054-.0675676-.5405406-.20270274-.1351351-.13513513-.2027027-.27027027-.2027027-.47297297v-1.01351351c-.3378378.54054054-.7432432 1.01351351-1.2837838 1.28378378-.5405405.33783784-1.1486486.47297294-1.7567567.47297294z"/><path d="m32.5 9.66216216c-.0675676 0-.1351351.06756757-.2702703.13513514-.1351351.06756756-.2027027.06756756-.3378378.13513513s-.2702703.06756757-.472973.13513517c-.2027027.0675675-.3378378.0675675-.5405405.0675675s-.4054054 0-.6081081-.0675675c-.2027027-.0675676-.3378379-.13513517-.472973-.2702703-.1351351-.13513514-.2702703-.27027027-.3378378-.40540541-.0675676-.2027027-.1351352-.4054054-.1351352-.60810811v-5.13513513h-1.0135135v-.74324324h1.0135135v-2.43243244h.945946v2.43243244h1.6216216v.74324324h-1.6216216v4.86486486c0 .27027027.1351351.47297298.2702702.60810811.1351352.13513514.3378379.2027027.6081081.2027027.2702703 0 .472973-.06756756.6756757-.13513513s.3378379-.13513514.4054054-.2027027z"/><path d="m33.6486486 1.35135135v-1.35135135h.945946v1.35135135zm0 8.64864865v-7.16216216h.945946v7.16216216z" fill-rule="nonzero"/><path d="m39.6621622 10.1351351c-.5405406 0-1.0135136-.0675675-1.418919-.27027024-.4054054-.2027027-.8108108-.47297297-1.1486486-.81081081-.3378378-.33783783-.5405405-.74324324-.7432432-1.14864864-.2027028-.47297298-.2702703-.94594595-.2702703-1.41891892 0-.47297298.0675675-.94594595.2702703-1.41891892.2027027-.47297298.4054054-.81081081.7432432-1.14864865s.6756757-.60810811 1.1486486-.81081081c.4054054-.2027027.8783784-.27027027 1.418919-.27027027.5405405 0 1.0135135.06756757 1.4189189.27027027s.8108108.47297297 1.1486486.81081081c.3378379.33783784.5405406.74324324.7432433 1.14864865.2027027.47297297.2702702.94594594.2702702 1.41891892 0 .47297297-.0675675.94594594-.2702702 1.41891892-.2027027.47297297-.4054054.81081081-.7432433 1.14864864-.3378378.33783784-.6756756.60810811-1.1486486.81081081-.472973.13513514-.945946.27027024-1.4189189.27027024zm-2.6351352-3.71621618c0 .4054054.0675676.74324324.2027027 1.14864865.1351352.33783784.3378379.67567567.5405406.87837838.2027027.27027027.5405405.47297297.8108108.6081081.3378378.13513514.6756757.20270271 1.0135135.20270271s.6756757-.06756757 1.0135135-.20270271c.3378378-.13513513.6081081-.33783783.8108108-.6081081.2702703-.27027027.4054054-.54054054.5405406-.87837838.1351351-.33783784.2027027-.74324325.2027027-1.14864865 0-.40540541-.0675676-.74324324-.2027027-1.14864865-.1351352-.33783784-.3378379-.67567568-.5405406-.94594595-.2702703-.27027027-.5405405-.47297297-.8108108-.6081081-.3378378-.13513514-.6756757-.20270271-1.0135135-.20270271s-.6756757.06756757-1.0135135.20270271c-.3378379.13513513-.6081081.33783783-.8108108.6081081s-.4054054.54054054-.5405406.94594595c-.1351351.40540541-.2027027.74324324-.2027027 1.14864865z" fill-rule="nonzero"/><path d="m50.7432432 10h-.9459459v-3.98648649c0-.87837837-.1351351-1.48648648-.3378378-1.82432432-.2702703-.40540541-.6081081-.60810811-1.1486487-.60810811-.2702703 0-.5405405.06756757-.8108108.13513514-.2702703.06756756-.5405405.27027027-.7432432.4054054-.2702703.2027027-.472973.40540541-.6081082.67567568-.2027027.27027027-.3378378.54054054-.4054054.81081081v4.39189189h-.9459459v-7.16216216h.8783784v1.62162162c.1351351-.27027027.3378378-.47297297.5405405-.67567568.2027027-.2027027.472973-.4054054.7432433-.54054054.2702702-.13513513.5405405-.27027027.8108108-.33783783.2702702-.06756757.6081081-.13513514.9459459-.13513514.4054054 0 .7432433.06756757 1.0135135.2027027.2702703.13513514.472973.33783784.6756757.60810811.1351351.27027027.2702703.60810811.3378378.94594595.0675676.4054054.1351352.81081081.1351352 1.28378378v4.18918919z"/><path d="m55.0675676 10.1351351c-.5405406 0-1.0810811-.0675675-1.6216217-.27027024-.5405405-.2027027-1.0135135-.47297297-1.3513513-.81081081l.4054054-.6081081c.4054054.33783783.8108108.6081081 1.2162162.74324324.4054054.13513513.8783784.27027027 1.3513514.27027027.6081081 0 1.0135135-.13513514 1.3513513-.33783784.3378379-.2027027.5405406-.54054054.5405406-1.01351351 0-.2027027-.0675676-.33783784-.1351352-.47297297-.0675675-.13513514-.2027027-.27027028-.4054054-.33783784-.2027027-.06756757-.4054054-.20270271-.6756757-.27027027-.2702702-.06756757-.6081081-.13513514-.9459459-.27027027-.4054054-.06756757-.7432432-.20270271-1.0810811-.27027027-.2702703-.06756757-.5405405-.20270271-.7432432-.33783784-.2027027-.13513514-.3378379-.27027027-.4054054-.47297297-.0675676-.20270271-.1351352-.40540541-.1351352-.67567568 0-.33783784.0675676-.67567568.2027027-.94594595.1351352-.27027027.3378379-.47297297.6081081-.67567567.2702703-.2027027.5405406-.33783784.8783784-.40540541.3378379-.06756756.6756757-.13513513 1.0135135-.13513513.5405406 0 1.0135135.06756757 1.4864865.27027027s.8108108.4054054 1.0810811.67567567l-.472973.54054054c-.2702702-.27027027-.6081081-.47297297-.9459459-.6081081-.4054054-.13513514-.7432433-.20270271-1.2162162-.20270271-.2702703 0-.472973 0-.6756757.06756757s-.4054054.13513514-.5405405.27027027c-.1351352.13513514-.2702703.27027027-.4054055.40540541-.0675675.2027027-.1351351.33783783-.1351351.6081081 0 .20270271 0 .33783784.0675676.47297298.0675675.13513513.2027027.2027027.3378378.33783784.1351352.06756756.3378379.13513513.5405406.2027027s.4729729.13513513.8108108.2027027c.4729729.13513514.8783783.2027027 1.2162162.33783784.3378378.13513513.6081081.27027027.8783784.4054054.2027027.13513514.4054054.33783784.5405405.54054054.1351351.20270271.2027027.47297298.2027027.74324325 0 .67567567-.2702703 1.14864865-.7432432 1.55405405-.6081081.27027027-1.2837838.47297294-2.0945946.47297294z"/></g></g></svg>