<svg width="330" height="57" xmlns="http://www.w3.org/2000/svg">

 <g>
  <title>background</title>
  <rect fill="none" id="canvas_background" height="402" width="582" y="-1" x="-1"/>
 </g>
 <g>
  <title>Layer 1</title>
  <g id="svg_1" fill-rule="evenodd" fill="none">
   <g id="svg_2" fill="#13110c">
    <path id="svg_3" d="m11.11748,1.45464l-11.11728,34.29614l5.08103,0l11.03438,-34.29614l-4.99813,0z"/>
    <path id="svg_4" d="m23.22893,27.17648c1.19099,0 2.10415,-0.08533 2.73908,-0.25761c0.63492,-0.17228 0.95279,-0.52209 0.95279,-1.05228c0,-0.34334 -0.09948,-0.63533 -0.29765,-0.87353c-0.19897,-0.23779 -0.4768,-0.44242 -0.83389,-0.61511c-0.3571,-0.17147 -0.76798,-0.33728 -1.23022,-0.49581c-0.46346,-0.15893 -0.94714,-0.31746 -1.44941,-0.4768c-0.7142,-0.2111 -1.44214,-0.45658 -2.18302,-0.73401c-0.74129,-0.27783 -1.41544,-0.62845 -2.02448,-1.05187c-0.60864,-0.42302 -1.11092,-0.95886 -1.50846,-1.60754c-0.39673,-0.64827 -0.59489,-1.46235 -0.59489,-2.44143c0,-0.79386 0.15125,-1.54081 0.45577,-2.24287c0.30452,-0.70044 0.78052,-1.32323 1.42919,-1.86555c0.64827,-0.54232 1.47489,-0.96574 2.48107,-1.27026c1.00537,-0.30371 2.2093,-0.45658 3.61261,-0.45658c1.21647,0 2.34801,0.09342 3.39342,0.27824c1.0454,0.18522 1.95129,0.45011 2.71926,0.79345l-0.75422,4.12824c-0.45052,-0.13224 -1.15096,-0.35063 -2.10375,-0.65474c-0.9528,-0.30412 -2.02489,-0.45659 -3.21548,-0.45659c-1.24397,0 -2.08353,0.15247 -2.5203,0.45659c-0.43676,0.30411 -0.65514,0.62886 -0.65514,0.97261c0,0.29158 0.09908,0.54919 0.29764,0.77404c0.19857,0.22526 0.46305,0.43029 0.79427,0.61511c0.3304,0.18563 0.71419,0.36397 1.15095,0.53585c0.43636,0.17268 0.90629,0.33728 1.40897,0.49621c0.7142,0.2386 1.45508,0.50309 2.22265,0.79386c0.76757,0.29198 1.46235,0.65474 2.08434,1.09151c0.62118,0.43676 1.13154,0.99242 1.52827,1.66739c0.39673,0.67496 0.5953,1.50239 0.5953,2.48106c0,0.76798 -0.14559,1.49511 -0.43677,2.18342c-0.29158,0.68791 -0.77364,1.2836 -1.4486,1.78588c-0.67497,0.50269 -1.55497,0.90022 -2.64,1.191c-1.08544,0.29077 -2.42081,0.43636 -4.00934,0.43636c-1.61441,0 -2.99022,-0.18522 -4.12783,-0.55566c-1.13842,-0.37004 -2.05077,-0.70045 -2.73908,-0.99243l0.75423,-4.0886c0.9265,0.37125 1.91165,0.715 2.95746,1.03246c1.045,0.31746 2.10982,0.47599 3.19526,0.47599"/>
    <path id="svg_5" d="m34.25683,21.69876c0,-1.64069 0.25074,-3.08242 0.75423,-4.3268c0.50228,-1.24316 1.1639,-2.2825 1.98445,-3.11599c0.82014,-0.83349 1.75959,-1.46154 2.81834,-1.88577c1.05794,-0.42302 2.14339,-0.63493 3.25511,-0.63493c2.75162,0 4.84243,0.81408 6.27162,2.44144c1.42919,1.62775 2.14338,4.00286 2.14338,7.12533c0,0.31746 -0.00687,0.64867 -0.01981,0.99202c-0.01375,0.34415 -0.03357,0.62239 -0.05905,0.8339l-12.10728,0c0,1.21768 0.50228,2.17694 1.50846,2.87779c1.00577,0.70165 2.30232,1.05147 3.89004,1.05147c0.97867,0 1.91165,-0.10555 2.79853,-0.31746c0.88647,-0.21151 1.63382,-0.42302 2.24246,-0.63493l0.67496,4.16827c-0.84684,0.29118 -1.74665,0.53585 -2.69904,0.73441c-0.9528,0.19817 -2.02449,0.29725 -3.21508,0.29725c-1.58853,0 -3.01125,-0.20504 -4.26775,-0.61511c-1.25691,-0.41048 -2.32861,-1.01872 -3.21508,-1.82592c-0.88687,-0.80721 -1.5675,-1.80651 -2.0443,-2.9971c-0.4764,-1.19099 -0.71419,-2.58014 -0.71419,-4.16787zm12.5036,-1.94522c0,-0.50187 -0.06672,-0.98555 -0.19816,-1.449c-0.13305,-0.46225 -0.34456,-0.87879 -0.63573,-1.25004c-0.29118,-0.37004 -0.66122,-0.66809 -1.11092,-0.89335c-0.45052,-0.22444 -1.00618,-0.33768 -1.66739,-0.33768c-0.63533,0 -1.18493,0.10677 -1.64758,0.31827c-0.46305,0.21191 -0.84724,0.50269 -1.15095,0.87272c-0.30452,0.37125 -0.54272,0.79427 -0.71419,1.27067c-0.17269,0.47599 -0.28511,0.96654 -0.33769,1.46841l7.46261,0z"/>
    <path id="svg_6" d="m69.12817,17.17364c-0.31747,-0.07927 -0.69438,-0.15893 -1.13114,-0.2382c-0.43636,-0.07926 -0.88,-0.15165 -1.32971,-0.21838c-0.45051,-0.06552 -0.88728,-0.11243 -1.31029,-0.13912c-0.42342,-0.02588 -0.78092,-0.03923 -1.0717,-0.03923c-0.68871,0 -1.36286,0.03357 -2.02408,0.09908c-0.66202,0.06592 -1.33698,0.1921 -2.02448,0.37692l0,13.85353l-4.9225,0l0,-17.4257c1.29654,-0.4764 2.62625,-0.85978 3.98952,-1.15136c1.36287,-0.29078 2.95746,-0.43677 4.78338,-0.43677c0.26368,0 0.6414,0.01375 1.13074,0.03963c0.48974,0.0271 1.01265,0.0732 1.56831,0.13912c0.55606,0.06633 1.11739,0.14559 1.6868,0.2378c0.56901,0.09382 1.07816,0.21838 1.52827,0.37731l-0.87312,4.52537z"/>
    <path id="svg_7" d="m79.15099,30.86819c-1.191,-2.35488 -2.40181,-5.11378 -3.63243,-8.27628c-1.23022,-3.1621 -2.40099,-6.62224 -3.51272,-10.38004l5.12026,0c0.23819,1.00618 0.52209,2.07787 0.8533,3.21507c0.33081,1.13842 0.68144,2.2825 1.05228,3.43346c0.37004,1.15136 0.74736,2.26956 1.13114,3.35419c0.38379,1.08544 0.74736,2.07787 1.09151,2.97769c0.34375,-0.89982 0.72754,-1.89225 1.15096,-2.97769c0.42301,-1.08463 0.84036,-2.20283 1.25084,-3.35419c0.41008,-1.15096 0.8068,-2.29504 1.191,-3.43346c0.38297,-1.1372 0.69437,-2.20889 0.93257,-3.21507l4.96173,0c-1.11173,3.7578 -2.34195,7.21794 -3.69188,10.38004c-1.34912,3.1625 -2.61937,5.9214 -3.80996,8.27628l-4.0886,0z"/>
    <path id="svg_8" d="m91.46435,21.69876c0,-1.64069 0.25074,-3.08242 0.75423,-4.3268c0.50228,-1.24316 1.1639,-2.2825 1.98445,-3.11599c0.82015,-0.83349 1.75959,-1.46154 2.81834,-1.88577c1.05795,-0.42302 2.14339,-0.63493 3.25511,-0.63493c2.75162,0 4.84243,0.81408 6.27162,2.44144c1.42919,1.62775 2.14339,4.00286 2.14339,7.12533c0,0.31746 -0.00647,0.64867 -0.01982,0.99202c-0.01375,0.34415 -0.03357,0.62239 -0.05945,0.8339l-12.10687,0c0,1.21768 0.50228,2.17694 1.50845,2.87779c1.00577,0.70165 2.30232,1.05147 3.89004,1.05147c0.97867,0 1.91165,-0.10555 2.79853,-0.31746c0.88647,-0.21151 1.63382,-0.42302 2.24246,-0.63493l0.67496,4.16827c-0.84683,0.29118 -1.74665,0.53585 -2.69904,0.73441c-0.95279,0.19817 -2.02449,0.29725 -3.21507,0.29725c-1.58853,0 -3.01125,-0.20504 -4.26776,-0.61511c-1.25691,-0.41048 -2.3286,-1.01872 -3.21507,-1.82592c-0.88688,-0.80721 -1.5675,-1.80651 -2.04431,-2.9971c-0.47639,-1.19099 -0.71419,-2.58014 -0.71419,-4.16787zm12.50361,-1.94522c0,-0.50187 -0.06673,-0.98555 -0.19817,-1.449c-0.13305,-0.46225 -0.34456,-0.87879 -0.63573,-1.25004c-0.29118,-0.37004 -0.66121,-0.66809 -1.11092,-0.89335c-0.45051,-0.22444 -1.00618,-0.33768 -1.66739,-0.33768c-0.63533,0 -1.18493,0.10677 -1.64757,0.31827c-0.46305,0.21191 -0.84725,0.50269 -1.15096,0.87272c-0.30452,0.37125 -0.54272,0.79427 -0.71419,1.27067c-0.17268,0.47599 -0.28511,0.96654 -0.33768,1.46841l7.46261,0z"/>
    <path id="svg_9" d="m126.33569,17.17364c-0.31747,-0.07927 -0.69438,-0.15893 -1.13114,-0.2382c-0.43636,-0.07926 -0.88,-0.15165 -1.32971,-0.21838c-0.45051,-0.06552 -0.88728,-0.11243 -1.31029,-0.13912c-0.42342,-0.02588 -0.78092,-0.03923 -1.07169,-0.03923c-0.68872,0 -1.36287,0.03357 -2.02408,0.09908c-0.66203,0.06592 -1.33699,0.1921 -2.02449,0.37692l0,13.85353l-4.9225,0l0,-17.4257c1.29655,-0.4764 2.62625,-0.85978 3.98952,-1.15136c1.36287,-0.29078 2.95747,-0.43677 4.78339,-0.43677c0.26367,0 0.64139,0.01375 1.13073,0.03963c0.48974,0.0271 1.01265,0.0732 1.56831,0.13912c0.55607,0.06633 1.11739,0.14559 1.6868,0.2378c0.56901,0.09382 1.07816,0.21838 1.52827,0.37731l-0.87312,4.52537z"/>
    <path id="svg_10" d="m144.06749,30.07409c-0.07927,0.05379 -0.25761,0.14599 -0.53585,0.27824c-0.27783,0.13264 -0.6418,0.27136 -1.09151,0.41654c-0.45051,0.14559 -0.9993,0.27096 -1.64717,0.37691c-0.64908,0.10555 -1.38349,0.15894 -2.20323,0.15894c-2.24934,0 -3.89004,-0.66809 -4.9221,-2.00427c-1.03206,-1.33617 -1.54809,-3.28787 -1.54809,-5.85507l0,-15.83798l-5.16029,0l0,-4.04937l10.04276,0l0,20.24485c0,1.27026 0.25073,2.13044 0.75423,2.58015c0.50228,0.4497 1.1372,0.67415 1.90518,0.67415c0.97868,0 1.79923,-0.13143 2.46084,-0.39673c0.66162,-0.26367 1.09798,-0.43676 1.3103,-0.51562l0.63493,3.92926z"/>
    <path id="svg_11" d="m145.60777,21.69876c0,-1.64069 0.25073,-3.08242 0.75423,-4.3268c0.50228,-1.24316 1.16389,-2.2825 1.98445,-3.11599c0.82014,-0.83349 1.75959,-1.46154 2.81834,-1.88577c1.05794,-0.42302 2.14338,-0.63493 3.25511,-0.63493c2.75162,0 4.84243,0.81408 6.27162,2.44144c1.42919,1.62775 2.14338,4.00286 2.14338,7.12533c0,0.31746 -0.00647,0.64867 -0.01981,0.99202c-0.01375,0.34415 -0.03357,0.62239 -0.05945,0.8339l-12.10688,0c0,1.21768 0.50228,2.17694 1.50846,2.87779c1.00577,0.70165 2.30231,1.05147 3.89003,1.05147c0.97868,0 1.91166,-0.10555 2.79853,-0.31746c0.88647,-0.21151 1.63383,-0.42302 2.24247,-0.63493l0.67496,4.16827c-0.84684,0.29118 -1.74666,0.53585 -2.69905,0.73441c-0.95279,0.19817 -2.02448,0.29725 -3.21507,0.29725c-1.58853,0 -3.01125,-0.20504 -4.26776,-0.61511c-1.25691,-0.41048 -2.3286,-1.01872 -3.21507,-1.82592c-0.88687,-0.80721 -1.5675,-1.80651 -2.0443,-2.9971c-0.4764,-1.19099 -0.71419,-2.58014 -0.71419,-4.16787zm12.5036,-1.94522c0,-0.50187 -0.06632,-0.98555 -0.19816,-1.449c-0.13305,-0.46225 -0.34416,-0.87879 -0.63574,-1.25004c-0.29117,-0.37004 -0.66121,-0.66809 -1.11092,-0.89335c-0.45051,-0.22444 -1.00617,-0.33768 -1.66739,-0.33768c-0.63533,0 -1.18452,0.10677 -1.64757,0.31827c-0.46305,0.21191 -0.84724,0.50269 -1.15095,0.87272c-0.30453,0.37125 -0.54273,0.79427 -0.7142,1.27067c-0.17268,0.47599 -0.28511,0.96654 -0.33768,1.46841l7.46261,0z"/>
    <path id="svg_12" d="m172.3061,27.17648c1.1914,0 2.10456,-0.08533 2.73989,-0.25761c0.63493,-0.17228 0.95199,-0.52209 0.95199,-1.05228c0,-0.34334 -0.09949,-0.63533 -0.29765,-0.87353c-0.19856,-0.23779 -0.4768,-0.44242 -0.83349,-0.61511c-0.35669,-0.17147 -0.76838,-0.33728 -1.23022,-0.49581c-0.46386,-0.15893 -0.94754,-0.31746 -1.44901,-0.4768c-0.715,-0.2111 -1.44213,-0.45658 -2.18342,-0.73401c-0.74088,-0.27783 -1.41625,-0.62845 -2.02489,-1.05187c-0.60864,-0.42302 -1.11051,-0.95886 -1.50845,-1.60754c-0.39673,-0.64827 -0.59489,-1.46235 -0.59489,-2.44143c0,-0.79386 0.15165,-1.54081 0.45577,-2.24287c0.30452,-0.70044 0.78092,-1.32323 1.43,-1.86555c0.64746,-0.54232 1.47408,-0.96574 2.48066,-1.27026c1.00577,-0.30371 2.20971,-0.45658 3.6118,-0.45658c1.21688,0 2.34883,0.09342 3.39423,0.27824c1.04581,0.18522 1.95088,0.45011 2.71926,0.79345l-0.75463,4.12824c-0.45051,-0.13224 -1.15055,-0.35063 -2.10375,-0.65474c-0.9532,-0.30412 -2.02489,-0.45659 -3.21507,-0.45659c-1.24397,0 -2.08394,0.15247 -2.5207,0.45659c-0.43676,0.30411 -0.65434,0.62886 -0.65434,0.97261c0,0.29158 0.09908,0.54919 0.29724,0.77404c0.19857,0.22526 0.46306,0.43029 0.79386,0.61511c0.33041,0.18563 0.7146,0.36397 1.15136,0.53585c0.43677,0.17268 0.90629,0.33728 1.40938,0.49621c0.71338,0.2386 1.45467,0.50309 2.22184,0.79386c0.76757,0.29198 1.46276,0.65474 2.08434,1.09151c0.62117,0.43676 1.13194,0.99242 1.52867,1.66739c0.39673,0.67496 0.5953,1.50239 0.5953,2.48106c0,0.76798 -0.146,1.49511 -0.43677,2.18342c-0.29158,0.68791 -0.77404,1.2836 -1.44901,1.78588c-0.67496,0.50269 -1.55496,0.90022 -2.63959,1.191c-1.08504,0.29077 -2.42162,0.43636 -4.00974,0.43636c-1.61442,0 -2.99022,-0.18522 -4.12703,-0.55566c-1.13922,-0.37004 -2.05158,-0.70045 -2.73989,-0.99243l0.75423,-4.0886c0.92651,0.37125 1.91125,0.715 2.95827,1.03246c1.0442,0.31746 2.10901,0.47599 3.19445,0.47599"/>
    <path id="svg_13" d="m190.53784,27.17648c1.19139,0 2.10455,-0.08533 2.73988,-0.25761c0.63493,-0.17228 0.95199,-0.52209 0.95199,-1.05228c0,-0.34334 -0.09949,-0.63533 -0.29765,-0.87353c-0.19856,-0.23779 -0.4768,-0.44242 -0.83349,-0.61511c-0.35669,-0.17147 -0.76838,-0.33728 -1.23022,-0.49581c-0.46386,-0.15893 -0.94754,-0.31746 -1.44901,-0.4768c-0.715,-0.2111 -1.44213,-0.45658 -2.18342,-0.73401c-0.74128,-0.27783 -1.41584,-0.62845 -2.02489,-1.05187c-0.60864,-0.42302 -1.11051,-0.95886 -1.50845,-1.60754c-0.39673,-0.64827 -0.59489,-1.46235 -0.59489,-2.44143c0,-0.79386 0.15165,-1.54081 0.45577,-2.24287c0.30452,-0.70044 0.78092,-1.32323 1.43,-1.86555c0.64746,-0.54232 1.47408,-0.96574 2.48066,-1.27026c1.00577,-0.30371 2.20971,-0.45658 3.61221,-0.45658c1.21647,0 2.34842,0.09342 3.39382,0.27824c1.04581,0.18522 1.95088,0.45011 2.71927,0.79345l-0.75464,4.12824c-0.45051,-0.13224 -1.15055,-0.35063 -2.10375,-0.65474c-0.95279,-0.30412 -2.02489,-0.45659 -3.21507,-0.45659c-1.24397,0 -2.08393,0.15247 -2.5207,0.45659c-0.43676,0.30411 -0.65434,0.62886 -0.65434,0.97261c0,0.29158 0.09908,0.54919 0.29765,0.77404c0.19816,0.22526 0.46265,0.43029 0.79346,0.61511c0.3304,0.18563 0.71459,0.36397 1.15136,0.53585c0.43676,0.17268 0.90628,0.33728 1.40937,0.49621c0.71338,0.2386 1.45467,0.50309 2.22184,0.79386c0.76757,0.29198 1.46276,0.65474 2.08434,1.09151c0.62117,0.43676 1.13195,0.99242 1.52867,1.66739c0.39714,0.67496 0.5953,1.50239 0.5953,2.48106c0,0.76798 -0.14599,1.49511 -0.43677,2.18342c-0.29158,0.68791 -0.77404,1.2836 -1.449,1.78588c-0.67497,0.50269 -1.55497,0.90022 -2.63919,1.191c-1.08545,0.29077 -2.42162,0.43636 -4.01015,0.43636c-1.61441,0 -2.99022,-0.18522 -4.12702,-0.55566c-1.13923,-0.37004 -2.05118,-0.70045 -2.73989,-0.99243l0.75503,-4.0886c0.9257,0.37125 1.91085,0.715 2.95747,1.03246c1.04419,0.31746 2.109,0.47599 3.19445,0.47599"/>
    <path id="svg_14" d="m205.65022,35.75082l-5.08022,0l11.11728,-34.29614l4.99812,0l-11.03518,34.29614z"/>
   </g>
   <path id="svg_15" fill="#19b1a3" d="m241.89603,11.982l-3.95515,0l0,13.63151l3.95515,0c4.31547,0 6.83172,-3.10588 6.83172,-6.79937c0,-3.85769 -2.35327,-6.83214 -6.83172,-6.83214"/>
   <path id="svg_16" fill="#19b1a3" d="m261.1459,21.91941l7.22482,0l-3.59562,-10.00312l-3.6292,10.00312z"/>
   <path id="svg_17" fill="#19b1a3" d="m224.41339,1.0002l-10.09493,35.02449l105.51184,0l10.09492,-35.02449l-105.51183,0zm17.48272,28.69949l-8.5978,0l0,-21.80386l8.5978,0c6.83132,0 11.57224,4.34742 11.57224,10.91831c0,6.57088 -4.74092,10.88555 -11.57224,10.88555zm29.12209,0l-1.37257,-3.75982l-9.74147,0l-1.37379,3.75982l-5.09842,0l8.4332,-21.80386l5.81949,0l8.40044,21.80386l-5.06688,0zm15.20144,0l-4.64265,0l0,-8.92456l-8.40044,-12.8793l5.29456,0l5.4272,8.76077l5.36088,-8.76077l5.29578,0l-8.33533,12.8793l0,8.92456zm17.17455,0.39228c-4.18404,0 -7.19165,-1.40614 -9.25172,-3.465l2.55022,-3.53052c1.53595,1.60147 3.92198,2.94169 6.92959,2.94169c2.55063,0 3.79217,-1.20919 3.79217,-2.45114c0,-1.63463 -1.89588,-2.19029 -4.41213,-2.77871c-3.56408,-0.81732 -8.14081,-1.79801 -8.14081,-6.66915c0,-3.62839 3.13905,-6.57048 8.27063,-6.57048c3.465,0 6.34239,1.04581 8.49952,3.03996l-2.58217,3.39989c-1.76485,-1.63423 -4.11934,-2.38603 -6.24452,-2.38603c-2.09203,0 -3.20254,0.91519 -3.20254,2.22265c0,1.47125 1.82996,1.92904 4.34743,2.51746c3.59562,0.81651 8.17235,1.89588 8.17235,6.73386c0,3.98831 -2.84382,6.99552 -8.72802,6.99552z"/>
   <path id="svg_18" fill="#13110c" d="m193.78607,37.19251l-8.17357,0c-0.64544,0 -1.16753,-0.52291 -1.16753,-1.16754c0,-0.64463 0.52209,-1.16754 1.16753,-1.16754l8.17357,0c0.64544,0 1.16754,0.52291 1.16754,1.16754c0,0.64463 -0.5221,1.16754 -1.16754,1.16754m-15.17757,0l-8.17357,0c-0.64504,0 -1.16713,-0.52291 -1.16713,-1.16754c0,-0.64463 0.52209,-1.16754 1.16713,-1.16754l8.17357,0c0.64544,0 1.16753,0.52291 1.16753,1.16754c0,0.64463 -0.52209,1.16754 -1.16753,1.16754m-15.17758,0l-8.17275,0c-0.64464,0 -1.16714,-0.52291 -1.16714,-1.16754c0,-0.64463 0.5225,-1.16754 1.16714,-1.16754l8.17275,0c0.64464,0 1.16714,0.52291 1.16714,1.16754c0,0.64463 -0.5225,1.16754 -1.16714,1.16754m-15.17757,0l-8.17235,0c-0.64464,0 -1.16754,-0.52291 -1.16754,-1.16754c0,-0.64463 0.5229,-1.16754 1.16754,-1.16754l8.17235,0c0.64463,0 1.16754,0.52291 1.16754,1.16754c0,0.64463 -0.52291,1.16754 -1.16754,1.16754m-15.17717,0l-8.17235,0c-0.64504,0 -1.16754,-0.52291 -1.16754,-1.16754c0,-0.64463 0.5225,-1.16754 1.16754,-1.16754l8.17235,0c0.64463,0 1.16754,0.52291 1.16754,1.16754c0,0.64463 -0.52291,1.16754 -1.16754,1.16754m-15.17757,0l-8.17236,0c-0.64463,0 -1.16753,-0.52291 -1.16753,-1.16754c0,-0.64463 0.5229,-1.16754 1.16753,-1.16754l8.17236,0c0.64503,0 1.16753,0.52291 1.16753,1.16754c0,0.64463 -0.5225,1.16754 -1.16753,1.16754m-15.17717,0l-8.17236,0c-0.64503,0 -1.16753,-0.52291 -1.16753,-1.16754c0,-0.64463 0.5225,-1.16754 1.16753,-1.16754l8.17236,0c0.64463,0 1.16753,0.52291 1.16753,1.16754c0,0.64463 -0.5229,1.16754 -1.16753,1.16754m-15.17758,0l-8.17235,0c-0.64463,0 -1.16754,-0.52291 -1.16754,-1.16754c0,-0.64463 0.52291,-1.16754 1.16754,-1.16754l8.17235,0c0.64504,0 1.16754,0.52291 1.16754,1.16754c0,0.64463 -0.5225,1.16754 -1.16754,1.16754m-15.17717,0l-8.17235,0c-0.64503,0 -1.16753,-0.52291 -1.16753,-1.16754c0,-0.64463 0.5225,-1.16754 1.16753,-1.16754l8.17235,0c0.64464,0 1.16754,0.52291 1.16754,1.16754c0,0.64463 -0.5229,1.16754 -1.16754,1.16754m-15.17757,0l-8.17235,0c-0.64463,0 -1.16754,-0.52291 -1.16754,-1.16754c0,-0.64463 0.52291,-1.16754 1.16754,-1.16754l8.17235,0c0.64504,0 1.16754,0.52291 1.16754,1.16754c0,0.64463 -0.5225,1.16754 -1.16754,1.16754m-15.17717,0l-8.17235,0c-0.64504,0 -1.16754,-0.52291 -1.16754,-1.16754c0,-0.64463 0.5225,-1.16754 1.16754,-1.16754l8.17235,0c0.64463,0 1.16754,0.52291 1.16754,1.16754c0,0.64463 -0.52291,1.16754 -1.16754,1.16754m-15.17757,0l-8.17235,0c-0.64464,0 -1.16754,-0.52291 -1.16754,-1.16754c0,-0.64463 0.5229,-1.16754 1.16754,-1.16754l8.17235,0c0.64504,0 1.16754,0.52291 1.16754,1.16754c0,0.64463 -0.5225,1.16754 -1.16754,1.16754"/>
   <g id="svg_19" fill="#cc171a">
    <text font-weight="bold" xml:space="preserve" text-anchor="start" font-family="Helvetica, Arial, sans-serif" font-size="16" id="svg_30" y="52.9375" x="225.5" stroke-opacity="null" stroke-width="0" stroke="null" fill="#CE7975">Cardiff 2019</text>
   </g>
  </g>
 </g>
</svg>