<?xml version="1.0" encoding="UTF-8"?>
<svg width="695px" height="168px" viewBox="0 0 695 168" version="1.1" xmlns="http://www.w3.org/2000/svg" xmlns:xlink="http://www.w3.org/1999/xlink">
    <!-- Generator: Sketch 52.5 (67469) - http://www.bohemiancoding.com/sketch -->
    <title>TPX_NB_Logo_Brown Copy 2</title>
    <desc>Created with Sketch.</desc>
    <g id="Page-1" stroke="none" stroke-width="1" fill="none" fill-rule="evenodd">
        <g id="Artboard" transform="translate(-89.000000, -478.000000)">
            <g id="TPX_NB_Logo_Brown-Copy-2" transform="translate(89.000000, 482.000000)">
                <g id="NotBinary_Logo" transform="translate(151.000000, 0.000000)">
                    <path d="M343.530957,44.3744222 L343.530957,48.7454702 L335.608036,49.3839379 L335.608036,115.882802 L332.321653,114.652758 L283.501461,49.3839379 L284.606144,44.3744222 L329.532176,105.765545 L329.823817,105.716432 L329.823817,49.3839379 L321.900896,48.7454702 L321.900896,44.3744222 L343.530957,44.3744222 Z M347.17047,111.560867 L352.371406,111.167964 L377.501163,44.3744222 L382.993741,44.3744222 L407.880463,111.167964 L413.178613,111.560867 L413.178613,115.882802 L395.728743,115.882802 L395.728743,111.560867 L401.901817,111.069738 L396.068991,95.0589333 L364.280092,95.0589333 L358.39866,111.069738 L364.571733,111.560867 L364.571733,115.882802 L347.17047,115.882802 L347.17047,111.560867 Z M366.224367,89.8038532 L394.173323,89.8038532 L380.417576,51.9869215 L380.125935,51.9869215 L366.224367,89.8038532 Z M450.109191,44.4235351 C457.691902,44.4235351 463.516568,46.093357 467.583364,49.4330508 C471.65016,52.7727446 473.683528,57.6021313 473.683528,63.9213558 C473.683528,67.6539547 472.597985,71.0099692 470.426867,73.9894999 C468.255748,76.9690306 465.193546,79.1299766 461.240166,80.4724025 C465.614807,81.5856337 468.766122,83.5746862 470.694204,86.4396196 C472.622287,89.304553 473.586314,92.9143149 473.586314,97.2690137 L473.586314,103.801029 C473.586314,106.322171 473.975165,108.188442 474.752879,109.3999 C475.530593,110.611357 476.713348,111.266189 478.301181,111.364415 L480.682918,111.511754 L480.682918,115.882802 L476.988795,115.882802 C473.553892,115.882802 471.155977,114.704104 469.794977,112.346673 C468.433978,109.989243 467.753488,107.107981 467.753488,103.702803 L467.753488,97.3672395 C467.753488,93.0452828 466.384408,89.6155997 463.646207,87.0780873 C460.908006,84.5405749 457.092404,83.2227253 452.199287,83.124499 L434.409169,83.124499 L434.409169,110.922399 L442.33209,111.60998 L442.33209,115.882802 L420.702029,115.882802 L420.702029,111.60998 L428.62495,110.922399 L428.62495,49.4330508 L420.702029,48.7454702 L420.702029,44.4235351 L450.109191,44.4235351 Z M434.409169,78.1149834 L449.428694,78.1149834 C455.81243,78.1149834 460.478644,76.82169 463.427476,74.2350644 C466.376308,71.6484388 467.850702,68.1941995 467.850702,63.8722429 C467.850702,59.2883494 466.376308,55.7358853 463.427476,53.2147439 C460.478644,50.6936026 456.03926,49.4330508 450.109191,49.4330508 L434.409169,49.4330508 L434.409169,78.1149834 Z M499.719132,48.7454702 L492.914169,49.2365992 L512.06528,84.106757 L531.313604,49.2365992 L524.508641,48.7454702 L524.508641,44.3744222 L544,44.3744222 L544,48.7454702 L537.972747,49.2365992 L514.933086,89.7547403 L514.933086,110.922399 L522.856007,111.560867 L522.856007,115.882802 L501.177339,115.882802 L501.177339,111.560867 L509.10026,110.922399 L509.10026,89.41095 L486.255027,49.2365992 L480.276381,48.7454702 L480.276381,44.3744222 L499.719132,44.3744222 L499.719132,48.7454702 Z" id="NARY" fill="#2B1B17"></path>
                    <path d="M5.65932771,116.602918 L0,116.602918 L0,46.3358703 L5.5634069,46.3358703 L37.3131946,89.1366551 C41.9173934,95.3481069 45.9460673,100.880181 50.3584245,106.994579 L50.5502661,106.897525 C50.4543453,100.10375 50.4543453,92.9217585 50.4543453,85.8368213 L50.4543453,46.3358703 L56.113673,46.3358703 L56.113673,116.602918 L50.5502661,116.602918 L18.8004785,73.8021335 C14.1962797,67.5906818 10.1676057,62.0586076 5.75524852,55.9442097 L5.5634069,56.0412637 C5.65932771,62.835039 5.65932771,70.0170301 5.65932771,77.1019673 L5.65932771,116.602918 Z M66.6338559,81.4693943 C66.6338559,61.1851221 81.6934228,45.268277 101.644951,45.268277 C121.596479,45.268277 136.656046,61.1851221 136.656046,81.4693943 C136.656046,101.753666 121.596479,117.670512 101.644951,117.670512 C81.6934228,117.670512 66.6338559,101.753666 66.6338559,81.4693943 Z M72.4850252,81.4693943 C72.4850252,98.5508867 84.7628887,112.138437 101.644951,112.138437 C118.527013,112.138437 130.804877,98.5508867 130.804877,81.4693943 C130.804877,64.387902 118.527013,50.8003512 101.644951,50.8003512 C84.7628887,50.8003512 72.4850252,64.387902 72.4850252,81.4693943 Z M161.466459,116.602918 L161.466459,51.7708906 L137.582177,51.7708906 L137.582177,46.3358703 L191.201909,46.3358703 L191.201909,51.7708906 L167.317628,51.7708906 L167.317628,116.602918 L161.466459,116.602918 Z M199.7837,116.602918 L199.7837,46.3358703 L217.816812,46.3358703 C226.066002,46.3358703 231.245725,47.3064096 235.37032,49.8298119 C240.454123,52.9355378 243.331747,58.1764502 243.331747,64.290848 C243.331747,71.9581088 238.823469,77.587237 231.533488,79.7224235 L231.533488,79.9165314 C240.358202,81.4693943 246.113451,87.6808461 246.113451,96.9980237 C246.113451,103.403583 243.331747,108.644496 238.631627,112.041383 C234.315191,115.147109 228.943626,116.602918 217.720891,116.602918 L199.7837,116.602918 Z M205.634869,78.0725066 L221.653644,78.0725066 C230.382438,78.0725066 237.480578,73.7050796 237.480578,64.9702256 C237.480578,60.2145828 235.37032,56.7206412 231.725329,54.4884007 C228.559943,52.547322 224.72311,51.7708906 217.241287,51.7708906 L205.634869,51.7708906 L205.634869,78.0725066 Z M205.634869,111.167898 L218.104574,111.167898 C227.600734,111.167898 232.013092,109.906197 235.178478,107.576903 C237.76834,105.635824 240.262281,102.141882 240.262281,96.9980237 C240.262281,88.2631697 233.164141,83.0222573 222.229169,83.0222573 L205.634869,83.0222573 L205.634869,111.167898 Z M258.357315,116.602918 L258.357315,46.3358703 L264.208484,46.3358703 L264.208484,116.602918 L258.357315,116.602918 Z M279.425893,116.602918 L279.425893,46.3358703 L285.277062,46.3358703 L285.277062,116.602918 L279.425893,116.602918 Z" id="NOT-BII" fill="#2B1B17"></path>
                    <path d="M366.914794,160 L247.949474,0" id="Line-Copy" stroke="#2B1B17" stroke-width="5.72631579" stroke-linecap="square"></path>
                </g>
                <g id="TPX_Logo" transform="translate(0.000000, 10.000000)"></g>
                <g id="Group" transform="translate(0.000000, 13.000000)">
                    <polygon id="Fill-2" fill="#FFE000" points="106.5252 118.8479 61.3222 73.6449 106.5252 28.4419"></polygon>
                    <polygon id="Fill-3" fill="#FF5E4D" points="89.7431 -1.42108547e-14 112.3451 22.602 89.7431 45.203"></polygon>
                    <polygon id="Fill-4" fill="#000A4A" points="75.7612 88.092 98.3632 110.694 75.7612 133.295"></polygon>
                    <path d="M17.092,37.94 L17.092,14.13 L26.106,14.13 L26.106,7.667 L7.10542736e-15,7.667 L7.10542736e-15,14.13 L9.014,14.13 L9.014,37.94 L17.092,37.94 Z M28.486,37.94 L36.48,37.94 L36.48,26.12 L42.9,26.12 C46.301,26.12 48.965,25.284 50.893,23.611 C52.821,21.939 53.785,19.7 53.785,16.893 C53.785,14.059 52.835,11.813 50.936,10.154 C49.036,8.496 46.358,7.667 42.9,7.667 L28.486,7.667 L28.486,37.94 Z M36.48,20.167 L36.48,13.705 L41.837,13.705 C43.395,13.705 44.537,13.981 45.26,14.534 C45.982,15.086 46.344,15.902 46.344,16.979 C46.344,19.104 44.841,20.167 41.837,20.167 L36.48,20.167 Z M83.377,7.667 L74.108,7.667 L67.433,16.851 L60.885,7.667 L51.659,7.667 L62.926,22.633 L51.404,37.94 L60.673,37.94 L67.476,28.501 L74.236,37.94 L83.547,37.94 L71.982,22.633 L83.377,7.667 Z" id="Fill-5" fill="#1D1D1B" fill-rule="nonzero"></path>
                </g>
            </g>
        </g>
    </g>
</svg>